<svg xmlns="http://www.w3.org/2000/svg" viewBox="0 0 996.97 1015.53"><defs><style>.cls-1{isolation:isolate;}.cls-2{fill:#ea9a98;}.cls-3,.cls-4,.cls-6,.cls-9{fill:#c94c57;}.cls-20,.cls-21,.cls-3{opacity:0.4;}.cls-12,.cls-13,.cls-15,.cls-21,.cls-24,.cls-3,.cls-6,.cls-9{mix-blend-mode:multiply;}.cls-10,.cls-5{fill:#ffc7c7;}.cls-10,.cls-24,.cls-6{opacity:0.6;}.cls-7{fill:#a55856;}.cls-8{opacity:0.7;}.cls-10{mix-blend-mode:screen;}.cls-11{fill:#969289;}.cls-12,.cls-13{fill:#9e9d98;}.cls-12{opacity:0.5;}.cls-14,.cls-20{fill:#f9f7ed;}.cls-15,.cls-21,.cls-24{fill:#bab7a8;}.cls-16{fill:#3b5856;}.cls-17{fill:#4c4836;}.cls-18{fill:#f7f4e8;}.cls-19{fill:#cc7575;}.cls-22{fill:#141000;}.cls-23{fill:#fff;}</style></defs><title>gfhfdghfg</title><g class="cls-1"><g id="Camada_1" data-name="Camada 1"><path class="cls-2" d="M795.93,326c-14-5.5-28.48-9.92-43.59-7.09-2.14.4-12,2-8.49-2.52a24.76,24.76,0,0,1,5.59-4.64,47.55,47.55,0,0,1,12-5.61c12.24-4.17,24.21-8.89,28.94-22,1.48-4.11,1.15-8.34-2.54-11-4.46-3.18-11.77-.42-16.19,1.24-7.57,2.84-14.77,6.65-22,10.2-3.75,1.84-7.6,3.43-11.39,5.18-2.87,1.33-15.24,5.71-12.43-2.25,1.71-4.81,7.88-8.74,11.73-11.77a134.79,134.79,0,0,0,11-9.36c7.26-7.13,14.79-19.34,5.43-28-8.56-7.87-19.55,9.17-23.27,14.38-9.34,13.09-22.86,23-33.88,34.8a58.32,58.32,0,0,1,.85-9c1.1-7.79,3.87-15.13,3.94-23.06.11-9.77-13.83-27.62-24.37-18.66-4.38,3.71-1.28,10.83.31,15.06,4.2,11.19-2.73,25.1-6.07,35.74-2.77,8.78-5.41,17.8-5.78,27a41.91,41.91,0,0,1-3.93,17.36c-2.56,5.37-6.63,9.83-9.87,14.76a2.1,2.1,0,0,0-.34,1c-2.19,3.66-1.25,8,1.24,11.55,4,5.75,11.45,2.76,16.79,1.18,5.16-1.52,10.55-3.07,15.95-2.25,4.6.7,9,3.9,13.14,5.88,7.12,3.38,14,4.27,21.62,2C729,363.55,734,355.37,739.73,349c7.35-8.17,19.62-6.85,29.36-4.9,8.21,1.65,16,4.84,24,1,4.1-2,5.64-6.44,5.86-10.84C798.85,331,798.07,327.86,795.93,326Z" transform="translate(197.97 1.82)"/><path class="cls-3" d="M797.09,327.37c-.26,4.07-3.34,8.09-7.56,8.69-5.39.77-10.48-.9-15.37-3.05-7.34-3.23-12.88-5.22-21-3.42-2.58.57-8.27,2.49-10.7.62-2.06-1.58-1.57-4.16.22-5.9a24.31,24.31,0,0,1,10.16-5.47l-.47.07c-2.14.4-12,2-8.49-2.52a24.76,24.76,0,0,1,5.59-4.64,47.55,47.55,0,0,1,12-5.61c12.24-4.17,24.21-8.89,28.94-22,1.48-4.11,1.15-8.34-2.54-11,0,0-.1,0-.15-.07.93,1.59,1,3.75-.4,6.62-2.85,5.75-8.36,8.73-13.73,11.83-2.72,1.57-5.66,3.38-8.77,4.11-3.78.88-7.76.68-11.48,1.83-1.81.55-22,13.16-19.08,1.93,1.19-4.59,5.07-7.78,8.79-10.43,1.94-1.38,3.9-2.71,5.87-4-3.52,1.7-7.1,3.21-10.65,4.84-2.87,1.33-15.24,5.71-12.43-2.25,1.71-4.81,7.88-8.74,11.73-11.77a134.79,134.79,0,0,0,11-9.36c6.86-6.74,13.94-18,6.81-26.5.92,4-1.34,8.74-3.43,11.85-4.13,6.1-9.23,9.19-15.53,12.79s-9.45,7.85-14.09,12.89c-2.53,2.76-7,7.93-11.38,7.43-2.06-.24-4.84-1.21-4.72-3.81a11.26,11.26,0,0,1,.75-3.4c-3.48,3.26-6.91,6.54-10.13,10a58.32,58.32,0,0,1,.85-9c1.1-7.79,3.87-15.13,3.94-23-.57,2.66-2.56,4.47-6.82,4.45-4.06,0-6.7-1.89-9.15-5-2.73-3.51-6.09-7.85-7.38-12.15a16.09,16.09,0,0,1-.48-6.38c-.19.14-.36.27-.54.42-4.38,3.71-1.28,10.83.31,15.06,4.2,11.19-2.73,25.1-6.07,35.74-2.77,8.78-5.41,17.8-5.78,27a41.91,41.91,0,0,1-3.93,17.36c-2.56,5.37-6.63,9.83-9.87,14.76a2.1,2.1,0,0,0-.34,1c-2.19,3.66-1.25,8,1.24,11.55,4,5.75,11.45,2.76,16.79,1.18,5.16-1.52,10.55-3.07,15.95-2.25,4.6.7,9,3.9,13.14,5.88,7.12,3.38,14,4.27,21.62,2C729,363.55,734,355.37,739.73,349c7.35-8.17,19.62-6.85,29.36-4.9,8.21,1.65,16,4.84,24,1,4.1-2,5.64-6.44,5.86-10.84A13.39,13.39,0,0,0,797.09,327.37Zm-69.89,15c-3.26,12-18.43,13.4-26.72,5.3-2-1.94-3.91-4.39-4.43-7.2-.92-5,1.1-11.5-5-14.23-7.9-3.51-9.72-10.23-10.38-18.61-.5-6.27-1.3-18.19,3.66-23.39,3.11-3.26,7.56-1.73,9.32,1.81a1.31,1.31,0,0,1,.68,2.11s-.06.11-.09.15a1.17,1.17,0,0,1-.35.6c-1.55,4.09,6.15,13.57,8.56,15.45a39.84,39.84,0,0,0,6.55,4.57c1.17.58-1.3-5.55-1.47-6a1.26,1.26,0,0,1,1.82-1.41C722,308.78,731.12,327.86,727.2,342.35Z" transform="translate(197.97 1.82)"/><path class="cls-4" d="M695.45,272.9c-1.14,5.9-1.92,11.82-1.23,17.85.78,7.05,7.36,11.47,12.68,15.28a.24.24,0,0,0,.34-.33c-3-4.28-7.49-7.07-9.46-12.09,0-.12-.06-.26-.11-.38-1.55-1.81-1.57-4.14-.86-6.55a71.08,71.08,0,0,1,.84-8c1.1-7.79,3.87-15.13,3.94-23.06,0-3-1.28-6.79-3.4-10.32C700.83,253.91,699,264.05,695.45,272.9Z" transform="translate(197.97 1.82)"/><path class="cls-4" d="M743.89,322.34c2.87-1,6-1.51,9-2.53a39.53,39.53,0,0,1,6.92-1.71,49.79,49.79,0,0,0-7.43.81c-2.14.4-12,2-8.49-2.52a24.76,24.76,0,0,1,5.59-4.64,47.55,47.55,0,0,1,12-5.61c12.24-4.17,24.21-8.89,28.94-22a15.75,15.75,0,0,0,.72-2.9,27.26,27.26,0,0,1-10.28,14.63c-11.15,7.87-25.08,10-37,16.55-2.14,1.79-3.69,3.8-3.84,5.95C739.76,320.68,741.87,321.78,743.89,322.34Z" transform="translate(197.97 1.82)"/><path class="cls-4" d="M796.44,340.17c-5.9,6.13-15.68,4.32-23.26,1.74-5.27-.84-10.39-2.05-14-2.42a30.09,30.09,0,0,0-15.79,2.14c-6.1,2.79-9.66,9.58-13.58,14.65a23.23,23.23,0,0,1-25.4,7.44c-5.73-1.94-10.56-6-16.31-8.1-5.37-1.94-10.51-1.28-15.91,0-3.86.93-7.63,2.41-11.56,3-4.65.71-7.09-4.42-7-8.59a2,2,0,0,0,1.33-.68,61.93,61.93,0,0,0,12-19.35c3.28-8.52,1.33-17.69,2.3-26.54,0-.11,0-.2.05-.31a84.68,84.68,0,0,1,.82-10.91c-2.2,7.33-4.06,14.83-4.37,22.48a41.91,41.91,0,0,1-3.93,17.36c-2.56,5.37-6.63,9.83-9.87,14.76a2.1,2.1,0,0,0-.34,1c-2.19,3.66-1.25,8,1.24,11.55,4,5.75,11.45,2.76,16.79,1.18,5.16-1.52,10.55-3.07,15.95-2.25,4.6.7,9,3.9,13.14,5.88,7.12,3.38,14,4.27,21.62,2C729,363.55,734,355.37,739.73,349c7.35-8.17,19.62-6.85,29.36-4.9,8.21,1.65,16,4.84,24,1,3.35-1.6,5-4.9,5.58-8.45A10.61,10.61,0,0,1,796.44,340.17Z" transform="translate(197.97 1.82)"/><path class="cls-4" d="M731.28,294.74a91.9,91.9,0,0,0,11.8-6.11c3.68-2.11,7.35-4.24,11-6.31-1.51.76-3,1.52-4.54,2.26-3.75,1.84-7.6,3.43-11.39,5.18-2.87,1.33-15.24,5.71-12.43-2.25,1.71-4.81,7.88-8.74,11.73-11.77a134.79,134.79,0,0,0,11-9.36c6.46-6.36,13.12-16.74,7.88-25a18.1,18.1,0,0,1-.26,10.56c-2,4.83-5.86,8.75-10.38,12l-1.23,1.22c-6.92,6.74-16.08,11.38-20.29,20.53-1,2.05-1.34,5.55.59,7.26A8.06,8.06,0,0,0,731.28,294.74Z" transform="translate(197.97 1.82)"/><path class="cls-4" d="M709.39,299.51c-.15-.09-.3.15-.16.26,12.88,10,19.72,23.9,22.12,39.93a.26.26,0,0,0,.52-.05A44,44,0,0,0,709.39,299.51Z" transform="translate(197.97 1.82)"/><path class="cls-5" d="M785.56,273.8c-7.93-1.95-16.57,2.54-23.42,6.12a108.89,108.89,0,0,0-23.89,16.49c-.2.18.1.47.3.34,6.85-4.64,13.48-9.28,20.86-13,7.82-4,17.2-8.91,26.1-9C786.08,274.74,786.05,273.92,785.56,273.8Z" transform="translate(197.97 1.82)"/><path class="cls-5" d="M794.51,328.69c-5.61-6.3-14.06-8.48-22-10.21-9.19-2-16.58.83-25.1,4.21a.29.29,0,1,0,.19.54c8.56-2.3,15.58-4.22,24.48-2.33A67.88,67.88,0,0,1,794,329.35C794.32,329.58,794.79,329,794.51,328.69Z" transform="translate(197.97 1.82)"/><path class="cls-5" d="M748.59,236.71c-8.17,1.91-12.8,9.13-17,15.85a72.89,72.89,0,0,1-11,13.87c-4.06,4-8.32,7.65-11.43,12.43a.24.24,0,0,0,.37.31c6.39-6.42,14.11-11.63,19.75-18.76,6.34-8,9.73-18.3,19.62-22.88A.44.44,0,0,0,748.59,236.71Z" transform="translate(197.97 1.82)"/><path class="cls-5" d="M679.4,237c-.28.24-.07.81.33.62,9.28-4.26,16,7.84,19.34,14.44.15.3.65.34.71-.06C701,244,686.84,230.69,679.4,237Z" transform="translate(197.97 1.82)"/><path class="cls-5" d="M706.65,311.46c-1.33-8.22-10.44-13.16-13.42-20.77-.09-.23-.5-.17-.44.1,1,4.9,3.63,8.39,6.6,12.33,5.75,7.69,6.68,15.76,1,23.72-.25.33.17.86.52.58A17.89,17.89,0,0,0,706.65,311.46Z" transform="translate(197.97 1.82)"/><path class="cls-5" d="M718.1,311.05c-.14-.13-.39.1-.26.26,7.56,9.34,10.61,23.29,5.73,34.58a.45.45,0,0,0,.75.47C733.88,336.65,726.19,318.92,718.1,311.05Z" transform="translate(197.97 1.82)"/><path class="cls-2" d="M352.31,930c.61-7-2.7-11.91-8-16.33-6.51-5.44-10.21-11.29-14.3-18.58-6.55-11.7-17.25-13.9-27.47-5.18-10.74,9.17-15.77,23.36-27,31.88-11.83,6.87-23.54,13-37.31,15.49-7.58,1.38-15.33,1.36-23,1.08-8.68-.32-17.72-.7-26.13-2.9-10.93-2.84-23.85-9.36-34.88-3.15-8.47,4.78-16.12,14.66-7,22.49-6.87,11.08-7,27.53,7.64,29.8a13.81,13.81,0,0,0,4.76,9.23c6,5.56,20.22,8,28,4.28,2.05,6.24,7.49,10.76,13.86,13.07,22.31,8.08,44.79-4.57,61.46-18.33,11.59-9.58,32.69-26.11,45.17-34.6C322,948.72,350.15,954.84,352.31,930Z" transform="translate(197.97 1.82)"/><path class="cls-3" d="M344.31,913.67c-6.51-5.44-10.21-11.29-14.3-18.58-6.55-11.7-17.25-13.9-27.47-5.18-10.74,9.17-15.77,23.36-27,31.88-5.28,3.07-10.53,6-15.94,8.47,3.67.83,6.07-.1,9.72-1.06,2.24-.6,5.18.34,7.49.31a22.13,22.13,0,0,0,11.75-3.64c5-3.24,8.94-4.49,14.57-6.17,4.25-1.26,7.55-2.72,10.68-5.91a26.1,26.1,0,0,1,5.05-4.28,1.27,1.27,0,0,1,1.71.44c3.35,5.28,10.44,3.75,13.59,9.27,1.85,3.26-.88,7.57-2.7,10.09-7.12,10-19.85,13.64-30.83,17.45-8.06,2.79-15.58,6-22.22,11.48-5.6,4.61-10.68,9.79-16.23,14.45-9.73,8.2-21.3,14.36-33,19.33-9.38,4-22.63,7.59-31.74.84-5.64-4.17-5-9.42,1-13,8.84-5.34,18.42-6.3,28.57-6.39,8.86-.08,17.46-.11,25.17-5.1a46.59,46.59,0,0,0,11.61-10.71,82,82,0,0,1-20.42,9c-8,2.15-16.25,2.43-24.43,3.37a72.22,72.22,0,0,0-27,8.23c-8.36,4.52-23.28,14.3-30.93,3.09a4.38,4.38,0,0,1-.33-4.52c-.61-11,17.51-13,26.32-12.79,13.45.32,30.78.11,43.87-3.56,9.8-2.75,16.73-5.31,23.36-11.46a173,173,0,0,1-20.77,5.77c-6.59,1.38-13.09,3.39-19.86,3.77-2.25.14-4.5.15-6.75.13a65,65,0,0,1-8.14-.13c-1-.07-2-.19-3-.3-1.31-.07-2.63-.15-4-.21-7.76-.37-16-.89-23.42,1.9-5.11,1.94-10.32,5.66-15.78,6.64-4.05.73-6.95-.32-7.82-3.09a1,1,0,0,1-.3-.58,6,6,0,0,1,0-2.2c-3.66,10.27-1.71,22,10.45,23.89a13.81,13.81,0,0,0,4.76,9.23c6,5.56,20.22,8,28,4.28,2.05,6.24,7.49,10.76,13.86,13.07,22.31,8.08,44.79-4.57,61.46-18.33,11.59-9.58,32.69-26.11,45.17-34.6,14-9.53,42.09-3.41,44.25-28.25C352.92,923,349.61,918.09,344.31,913.67Z" transform="translate(197.97 1.82)"/><path class="cls-3" d="M147.2,954.8c-.36.57-.68,1.18-1,1.78a35.19,35.19,0,0,1,8.1-8.1c7-5.13,15.35-1.09,22.31,2.08,22.31,10.17,48.65,5.58,69.46-6.82-4.06.85-8.18,1.5-12.34,2.08-6.1.85-12.08,2.08-18.12,2-2.74.18-5.48.27-8.23.2a91.14,91.14,0,0,1-21.71-3.26c-7.38-2-15.69-4.91-23.38-3.21-3.37.75-16.3,2.11-12.2-5.71a14.81,14.81,0,0,1,1-1.57C144.12,939.52,139.26,947.94,147.2,954.8Z" transform="translate(197.97 1.82)"/><path class="cls-2" d="M86.08,511.09a1.15,1.15,0,0,0-1-.45c-9.61.41-18,3.65-27.76,1.43-9.18-2.07-15.34-14-21.41-20.58-6.31-6.86-9.63-14.57-12.29-23.39-1.43-4.76-3.3-10-7.83-12.62C6.1,449.89,2.86,470.75,3.31,475.86c.5,5.91,4.41,11.09,7.74,15.73a68.34,68.34,0,0,1,6.73,11.11l-.08,0c-7.63,3.24-14.15,8.18-22.44,9.9-9,1.87-18.28.32-27.28-.48-6.81-.62-13.7-2.77-20.23.14-3,1.31-5.25,4-7.12,6.88a10,10,0,0,0-2.78,5l-.28.57a.29.29,0,0,0,.21.4c0,4,3.83,7.22,9.32,9.11,13.09,4.53,26,.41,39.12-1.62,3.87-.59,8.72-1.18,12.15,1.09,1.36.89-3,3.43-3.48,3.74-4.36,2.74-9.55,4.42-14.37,6.15-7.87,2.81-15.6,5.38-22.68,10s-12.15,11.86-6.35,19.58c6.44,8.59,20.16,2.71,27.46-1,8.44-4.3,15.83-9.47,24.81-12.76,2.91-1.06,12.89-4.83,13.43.57.7,7-7.38,15.27-10.74,21.06-4.76,8.22-11.62,22.17-3.05,30.27s19.46-6.08,23-12.33c3.65-6.44,4.76-14.23,7.36-21.09,2.75-7.26,12.21-9.22,18.29-12.52A60.47,60.47,0,0,0,67.69,553,85.88,85.88,0,0,1,87,537.41a.92.92,0,0,0-.15-1.6,29.39,29.39,0,0,0,3-9C90.88,521.44,91.67,513.86,86.08,511.09Z" transform="translate(197.97 1.82)"/><path class="cls-3" d="M86.08,511.09a1.15,1.15,0,0,0-1-.45c-9.61.41-18,3.65-27.76,1.43-9.18-2.07-15.34-14-21.41-20.58-6.31-6.86-9.63-14.57-12.29-23.39-1.43-4.76-3.3-10-7.83-12.62a9.19,9.19,0,0,0-.88-.45,24.73,24.73,0,0,1,1.45,5.84c.6,4.5.56,9.05,1.1,13.56.52,4.29,3.48,8.1,4.73,12.23,3,10.16-7,7.2-12.46,3.1.45.62.88,1.23,1.32,1.83a68.34,68.34,0,0,1,6.73,11.11l-.08,0c-7.63,3.24-14.14,8.17-22.42,9.9a10.09,10.09,0,0,1,2,1.67C4.44,522-11,525.08-15.45,526A123.78,123.78,0,0,1-39.38,528c-4.86,0-11,.33-15.46-2.21-3.24-1.85-4.56-4.19-4.62-6.56a10,10,0,0,0-2.69,4.92l-.28.57a.29.29,0,0,0,.21.4c0,4,3.83,7.22,9.32,9.11,13.09,4.53,26,.41,39.12-1.62,3.87-.59,8.72-1.18,12.15,1.09,1.36.89-3,3.43-3.48,3.74a40.23,40.23,0,0,1-5.6,2.83,40.51,40.51,0,0,1,14.19.1,1.21,1.21,0,0,1,.91,1.19C3.14,556.77-20.55,562.77-32,567.49c-3.89,1.6-14,6.86-17,1.17a9.81,9.81,0,0,1-.52-7.73c-2.06,3.67-2.24,7.87,1,12.25,6.44,8.59,20.16,2.71,27.46-1,8.44-4.3,15.83-9.47,24.81-12.76,2.91-1.06,12.89-4.83,13.43.57.34,3.35-1.37,7-3.61,10.58,3.85-3.48,7.85-5.57,10.19-2.4,4,5.39-1,16.45-3.15,21.58C18,596.08,13.3,606.4,5.25,606.65c-3.11.1-4.93-2.23-5.9-5a13.1,13.1,0,0,0,4.05,9.68c8.55,8.08,19.46-6.08,23-12.33,3.65-6.44,4.76-14.23,7.36-21.09,2.75-7.26,12.21-9.22,18.29-12.52A60.47,60.47,0,0,0,67.69,553,85.88,85.88,0,0,1,87,537.41a.92.92,0,0,0-.15-1.6,29.39,29.39,0,0,0,3-9C90.88,521.44,91.67,513.86,86.08,511.09ZM51.26,555.55c-5.44,4.44-16,7.8-22.73,4.77C20.8,556.85,15.92,548.06,13,540.5c-2.53-6.61-4.84-14.7-3.21-21.88.57-4,2.25-7.05,6.28-2,2.08,2.58,6.92,8.57,8.57,1.36a62.28,62.28,0,0,0,.9-6.25c.26-2.07.78-4.88,2.69-6.11,6.9-4.43,16.59,3.32,19.74,9.18,2.19,4.1,3.41,8.26,2.83,12.92-.41,3.18-7.32,11.08-2.6,13C56.26,543.82,58.34,549.79,51.26,555.55Z" transform="translate(197.97 1.82)"/><path class="cls-6" d="M-1.59,513.44c2.89,0,5.57-1.24,9-1.36-1.34,4.35-.18,10.22.59,14,1.82,8.84,5.57,16.89,10.07,24.68.18.31,2.61,3.38.55-.28C11.73,538.21,8,524,11.57,509.93c2.43-1.32,4.86-2.64,7.37-3.72.07,0,.1-.09.15-.11,1.22,4.11,1.18,8.34,1.66,12.63,0,.39.66.45.71,0,.7-6.51.72-13.75-1.85-19.87C14.53,486.68.26,484.13,5.46,462.5a39.35,39.35,0,0,0-2.15,13.36c.5,5.91,4.41,11.09,7.74,15.73a68.34,68.34,0,0,1,6.73,11.11l-.08,0c-7.63,3.24-14.15,8.18-22.44,9.9-1,.22-2.11.38-3.17.52C-6.61,513.64-5.32,513.47-1.59,513.44Z" transform="translate(197.97 1.82)"/><path class="cls-6" d="M-1.63,533.74c1.36.89-3,3.43-3.48,3.74-4.36,2.74-9.55,4.42-14.37,6.15l-.34.12c5.68-1.84,17.05-1.46,21-6.78A5,5,0,0,0,2.05,535c1.08-5.48-7.29-6.18-10.84-6.22-11.26-.14-22,5.15-33.36,4.2-6.22-.51-19.24-3-17.35-10-.19-2,.73-4.38,2-6.46-.67.83-1.3,1.69-1.89,2.59a10,10,0,0,0-2.78,5l-.28.57a.29.29,0,0,0,.21.4c0,4,3.83,7.22,9.32,9.11,13.09,4.53,26,.41,39.12-1.62C-9.91,532.06-5.06,531.47-1.63,533.74Z" transform="translate(197.97 1.82)"/><path class="cls-6" d="M17.19,560c.7,7-7.38,15.27-10.74,21.06-.41.72-.83,1.49-1.27,2.27,3.24-4.2,22-24.57,11.23-28.53-7.32-2.68-18.28,3.59-24.62,6.63-5.62,2.7-11,6.17-16.65,8.85-3.85,2.45-8,4.42-12.27,4.86-6.45.66-11.49-3-13.87-8.37a11.36,11.36,0,0,0,2.49,6.42c6.44,8.59,20.16,2.71,27.46-1,8.44-4.3,15.83-9.47,24.81-12.76C6.67,558.36,16.65,554.59,17.19,560Z" transform="translate(197.97 1.82)"/><path class="cls-6" d="M86.08,511.09a1.15,1.15,0,0,0-1-.45c-9.61.41-18,3.65-27.76,1.43-9.18-2.07-15.34-14-21.41-20.58-6.31-6.86-9.63-14.57-12.29-23.39-1.43-4.76-3.3-10-7.83-12.62a6,6,0,0,0-1.92-.76c2.09,1.65,3.61,4.47,4.65,7.46.11.25.25.5.34.73,1.4,2.83,2.17,6,3.24,8.94,2.58,7.19,5.63,13.58,10.67,19.36s9,12.16,14,18c8.65,10.2,26.91,7.48,38.37,4.05,2.91,3.56,1.89,8.66,1,12.89-1.28,6.08-3.58,9.29-7.91,13.53a47.75,47.75,0,0,0-9.3,7.06c-7,6.89-12.9,13-21.8,17.6-5.24,2.71-10.46,4.39-14.4,9C27.77,579,27.18,589,24.31,595.79a30.19,30.19,0,0,1-5.09,7.37,1.07,1.07,0,0,1-.33,1.13c-3.71,3.39-9.53,9.13-14.7,4.81a14,14,0,0,1-4.85-8.55A13.43,13.43,0,0,0,3.4,611.32c8.55,8.08,19.46-6.08,23-12.33,3.65-6.44,4.76-14.23,7.36-21.09,2.75-7.26,12.21-9.22,18.29-12.52A60.47,60.47,0,0,0,67.69,553,85.88,85.88,0,0,1,87,537.41a.92.92,0,0,0-.15-1.6,29.39,29.39,0,0,0,3-9C90.88,521.44,91.67,513.86,86.08,511.09Z" transform="translate(197.97 1.82)"/><path class="cls-5" d="M-13.48,514.58c-5-.45-10.06-.3-15.06-1.14A114.22,114.22,0,0,0-41,511.62c-6.14-.39-12.34,1-15.53,6.74-.14.27.23.58.46.39,11.61-9.84,29.14.14,42.68-3.39A.41.41,0,0,0-13.48,514.58Z" transform="translate(197.97 1.82)"/><path class="cls-5" d="M-3,541.33c-9.64,2.64-20.09,4.93-29.27,8.92-7.16,3.1-15.84,9-15.39,17.71a.5.5,0,0,0,1,.17c7.39-17.92,29.66-17.22,44-26.29C-2.42,541.66-2.68,541.25-3,541.33Z" transform="translate(197.97 1.82)"/><path class="cls-5" d="M17.62,569.36c-5.81,9.27-21.49,22.28-15.06,34.78a.47.47,0,0,0,.91-.2c-.85-13,9.86-23.09,14.62-34.36C18.24,569.25,17.8,569.07,17.62,569.36Z" transform="translate(197.97 1.82)"/><path class="cls-5" d="M20.7,550.43a51.36,51.36,0,0,1-5.81-16.58c-.84-4.64-1.76-11.37-.05-15.83.18-.49-.41-1.16-.89-.73-4.2,3.8-3,9.77-2,14.79a45.66,45.66,0,0,0,8.36,18.65A.26.26,0,0,0,20.7,550.43Z" transform="translate(197.97 1.82)"/><path class="cls-5" d="M41.64,511.28c-2.41-3.41-8.56-6.57-12.19-3.13-1.83,1.75-2.41,4-2.71,6.4-.35,2.66-.23,7.69-3.5,8.53-.12,0-.1.21,0,.22,3.66.49,4.54-3.43,5.25-6.24s.82-6.09,3.81-7.31S38.42,510.92,41,512A.51.51,0,0,0,41.64,511.28Z" transform="translate(197.97 1.82)"/><path class="cls-5" d="M11.56,456.67c-5,1.62-6.52,8.25-6.87,12.84a18.66,18.66,0,0,0,5.88,14.88c.23.22.54-.11.39-.37-2.56-4-3.09-8.35-3.17-13-.11-5.3,2.69-8.72,4.74-13.24A.79.79,0,0,0,11.56,456.67Z" transform="translate(197.97 1.82)"/><path class="cls-7" d="M-80.55,384.21c-29.52-12.31-62.35-9.79-89.33,7.5-25.87,16.57-29.67,43.5-27.62,71.2a96.57,96.57,0,0,1,5.17-23.8c9.48-27.28,32.82-46.84,62.32-48.18,28.77-1.32,57.82,11.49,78,31.74,36.14,36.26,49.34,96.52,32.72,145.41-6.08,26.25-17,50.55-30.6,73.91-13.4,22.94-25.54,47.46-31.16,73.57-12,55.72,19.15,110.23,70,134.21,28.26,13.32,62.49,15.14,92.82,8.85,14.53-3,31.6-8,44.53-15.44,11.81-6.79,17.52-20.89,25.78-30.69-15.88,1.21-31.18,6.25-46.58,10-15.68,3.84-31.52,6.67-48.14,6.38-31.74-.57-59.47-16.48-79.53-40.42-54.11-64.58,2.59-127.76,23.06-191A196.7,196.7,0,0,0,8.4,507.76C.7,457.14-32.08,404.47-80.55,384.21Z" transform="translate(197.97 1.82)"/><path class="cls-2" d="M-104,378.66c-23.38-4.54-47.9,2.21-67.49,16.76-9.43,7-16.23,15.29-20,26.43-.2.62.76,1,1.06.47,15.5-30.59,54.57-39.66,86.16-34.81S-48,418-31.85,443.59C4.93,501.71-8.67,568.27-38.93,625.84-63.8,673.15-94.16,724.77-72.43,779-51.09,832.26,18,859.88,72.31,843.68c5.49-1.63,10.51-2.73,15.48-5.47,3-1.66,5-11.07,1.8-10.44-32.75,6.32-60.79,3.76-91.69-10-29.53-13.17-50.11-44.3-55.08-76.46-6.54-42.4,29.05-95.8,48.56-149.12C11.57,536.92,5.4,474-30.52,426.57-47,404.71-76.72,383.93-104,378.66Z" transform="translate(197.97 1.82)"/><g class="cls-8"><path class="cls-9" d="M-108.93,377.08c-4.39,2.65-8.75,6.81-5.87,12.07a25.72,25.72,0,0,0,1.67,2.65,99.46,99.46,0,0,1,10.57,2c0-.1.1-.2.14-.3-1.24-5.36-.6-10.81,3-15C-102.61,377.86-105.76,377.39-108.93,377.08Z" transform="translate(197.97 1.82)"/><path class="cls-9" d="M-156.93,396.44a33,33,0,0,1-2-10.77,100.89,100.89,0,0,0-9,4.87,24.53,24.53,0,0,0,6,10.12c1.78-1.08,3.58-2.07,5.46-3A12.69,12.69,0,0,1-156.93,396.44Z" transform="translate(197.97 1.82)"/><path class="cls-9" d="M-46.78,428.29c1.43-6,4.6-10.64,10.5-12.79a141.25,141.25,0,0,0-10.21-9.83,21.7,21.7,0,0,0-2,1,15.52,15.52,0,0,0-8.15,11.68c1.58,1.41,3.14,2.84,4.64,4.34C-50.19,424.48-48.47,426.36-46.78,428.29Z" transform="translate(197.97 1.82)"/><path class="cls-9" d="M-11.2,564a22.66,22.66,0,0,1,18.46,7.6C8.19,566.4,9,561.15,9.5,555.87h0c-9.38-9-17.5-6.09-25.5.57q-1.14,4.79-2.6,9.5A22.28,22.28,0,0,1-11.2,564Z" transform="translate(197.97 1.82)"/><path class="cls-9" d="M-47.68,639.12c6.9-1.39,16.52,2.57,20.45,8.41a33.67,33.67,0,0,1,3.67,7.32c1.43-3.14,2.88-6.27,4.32-9.41-1.23-5.76-4.08-10.94-9-13.93-5.21-3.18-10.28-1.74-15.42-.76-1.53,2.87-3.14,5.72-4.76,8.56Z" transform="translate(197.97 1.82)"/><path class="cls-9" d="M-59.52,707.38a32,32,0,0,1,15.43,10,122,122,0,0,1,2.18-12.57,54.28,54.28,0,0,0-4.4-4.28c-4.63-4-10.65-9.06-17.11-9.14-4.25-.06-8.35,1.93-12.1,4.52-1.73,5.05-3.17,10.18-4.44,15.35A23.36,23.36,0,0,1-59.52,707.38Z" transform="translate(197.97 1.82)"/><path class="cls-9" d="M6,845.08c1.75-10.49,9.51-17.69,18.58-22.61-1.62-.62-3.24-1.27-4.83-2-11.13,1.4-22.26,3.25-26.86,14.83-2.58,6.42-1.36,11.95,1.73,16.93a125.28,125.28,0,0,0,12.88,4.41A21,21,0,0,1,6,845.08Z" transform="translate(197.97 1.82)"/><path class="cls-9" d="M75.37,831.39a25.9,25.9,0,0,1,2-3.62,157.48,157.48,0,0,1-16.34,1.07,32.3,32.3,0,0,0-4.15,7.76c-3.44,9.58.25,17.93,6.55,24.75a162.68,162.68,0,0,0,18.1-2.69C74.4,851.41,70.57,842.14,75.37,831.39Z" transform="translate(197.97 1.82)"/><path class="cls-9" d="M-43.66,807.57c6.75-10.26,17.21-12.85,28.16-11.82-2.28-2.35-4.52-4.77-6.64-7.31l-.36-.45c-6.64-2.58-13.59-3.7-20.06-2.19-14.66,3.39-17.1,16.42-13.69,28.7,2.59,3.17,5.36,6.2,8.27,9.13A26.14,26.14,0,0,1-43.66,807.57Z" transform="translate(197.97 1.82)"/><path class="cls-9" d="M-9.51,501.9c6-2.13,12.13-.77,17.3,2.38C7,500,6.16,495.74,5.07,491.48a23.58,23.58,0,0,0-3-1c-7.07-1.75-13,.62-16.88,5.43.49,2.61.88,5.25,1.24,7.88A24.57,24.57,0,0,1-9.51,501.9Z" transform="translate(197.97 1.82)"/></g><path class="cls-10" d="M-27.4,609c-24.14,48.33-53.8,96.65-43.44,152.89,9.6,52.17,64.17,77.55,112.87,76.84.37,0,.37-.54,0-.59-50.51-4.55-99.27-31.76-107.7-85.21-4.12-26.08,1.4-52.85,10.65-77.19,8.55-22.53,21.66-43.05,29.77-65.77C-24.77,608.7-26.8,607.79-27.4,609Z" transform="translate(197.97 1.82)"/><path class="cls-10" d="M-54.16,405.18C-83,375.91-135.33,370.8-168.5,395.24c-.22.17.06.52.3.39,41.08-21.18,85.79-15.49,118,18.15,37.83,39.46,49.81,89.8,43.63,143.14,0,.37.54.38.58,0,2.72-28.47,4.5-54.38-3.92-82.16C-18,448-34.76,424.88-54.16,405.18Z" transform="translate(197.97 1.82)"/><path class="cls-10" d="M-7.87,561.76c-.49,3.42-2,6.54-2.61,9.92a.28.28,0,0,0,.53.15,36.79,36.79,0,0,0,2.49-10.07C-7.42,561.49-7.85,561.5-7.87,561.76Z" transform="translate(197.97 1.82)"/><path class="cls-11" d="M708.14,575.82c-11.75-5.14-25.93-6.58-38.49-8.12-17.36-2.11-34.87-2.62-52.32-3.42-16.64-.78-33.1-.22-49.1,4.77a166.21,166.21,0,0,0-26.37,11.23c-.5-2-1-3.92-1.54-5.86-5.62-20.06-13.2-39.4-21.44-58.52A173.61,173.61,0,0,1,531.7,482c10.27-20.08,24.4-37.67,40.75-53.12,16.66-15.75,35.85-28.68,55.89-39.74,10.71-5.92,21.77-11.19,32.94-16.23,10.61-4.78,21.32-7.38,32.6-9.91a8.41,8.41,0,0,0,1,.36c-1.17-.36-3.52-5.81-4.71-7-4.65-4.71-11.49-6.24-17.91-6.35,3.82-4.13,7.68-8.23,12.76-10.79-2,1-6.18-2.35-8.18-2.73s-9.87-.61-10.9,1.5c2.06-4.29,3.9-9.52,3.53-14.35-.15-2.17-1.16-8.66-4.13-10.72-.13,6.19-6.33,9-10.69,12.63-5,2.66-10.31,4.86-14.82,6.92a152.11,152.11,0,0,1-37.69,11.24c-13.42,2.29-26.88,2.59-40.44,2.11-10.78-.39-21.58-1.6-32.36-1.53-4.32-1-8.65-1.87-13-2.55-13.14-2.08-25.85-1.38-37.57,5.25a51.31,51.31,0,0,0-7.3,5.1,110.46,110.46,0,0,0-16.25-5.58c-16.37-4.2-34.34-5.3-51.2-5.14-27,.26-55.08,7.79-74,26.93a15.44,15.44,0,0,0-10.66-7.48c-15.45-2.72-30.4,11.24-41,20.33a529.57,529.57,0,0,1-44.06,34.54c-14.38,9.93-29.59,18.41-44.6,27.27-11.3,4.78-22.88,8.7-34.54,12.64-16.06,5.42-31.17,13-46,21.11-12.3,6.75-24.33,14-36.75,20.57-5.45,2.89-22.89,12.59-26.1,3.39a.43.43,0,0,0-.84.18,8.85,8.85,0,0,0,.09,1.19c0,6.53,6.88,9.55,12.35,11.11a41.5,41.5,0,0,0,11.28,1.41,37.58,37.58,0,0,0-3.74,3.08,73.37,73.37,0,0,0-8,9.13c-2,2.72-3.28,6-5.61,8.47a.38.38,0,0,0-.07.29.48.48,0,0,0,.39.74c6.5-.51,12.73-1.23,19.21-.35.5.08,1,.14,1.58.2-4.6,7.55-6.89,16.8-8.09,25.32a.28.28,0,0,0,.52.16s0-.12.08-.17a.21.21,0,0,0,.22-.14c3.72-10.47,19.32-17.12,29.05-20.31,14.93-4.9,32.19-5.6,47.75-7.25a229.3,229.3,0,0,1,50.17,0c7.91.9,16.51,2.08,25,2.18-2.24,3.72-4.44,7.47-6.52,11.29-6.86,12.68-12.7,25.86-19.36,38.63a205.81,205.81,0,0,0-14.33,34.62c-23,24.46-41,55.67-54.26,86.29A335.59,335.59,0,0,0,96.77,810.31c-1.26,15.09-1.21,30.4,4.06,44.78,4.53,12.38,13.07,22.95,23.36,31a78.72,78.72,0,0,0,42.39,16.4c18.21,1.38,36.6-3.37,54.54-5.72,18.26-2.37,34.53-7.37,50.27-17a12.37,12.37,0,0,1,1.45,1.75c2.77,4.06,3.61,9.43,4.07,14.21,1.19,12.34-3.19,21.94-13.36,29a.37.37,0,0,0-.18.32l-.08.06c-.29.24-.07.77.3.61,5.07-2.21,10.33-.63,15.55-1.87a32.69,32.69,0,0,0,14.15-7.42,34.53,34.53,0,0,0,8-10.37c-.3,2.16-.62,4.31-.89,6.47a9.8,9.8,0,0,0-.84,1.82.51.51,0,0,0,.85.54c2.81-2.93,6.22-3.62,9.59-5.54a26.9,26.9,0,0,0,7.93-6.53,17.59,17.59,0,0,0,2.65-4.65,19.88,19.88,0,0,0,4.19,4.94c3.9,3.36,11.08,6.9,16.3,5.18a.49.49,0,0,0,.32-.31,15.84,15.84,0,0,0,3.45,1.43c.5.16.64-.59.25-.82-15.55-9.16-12.69-33.74-9.28-48.25A141.42,141.42,0,0,1,343,838.86a197.53,197.53,0,0,0,20.74,1.92c26.06.8,53.71-7.24,78-15.92a296.46,296.46,0,0,0,67.73-34.81c16.39-11.24,33.84-23.07,53.06-28.88-1.59,9.28-2.56,18.75-4.42,27.74-4,19.3-6.92,38.52-13.32,57.18a10.64,10.64,0,0,0-2,6,.47.47,0,0,0,.89.15c2-5.59,7.5-7.65,12.08-10.72a60.13,60.13,0,0,0,10.25-9,54.31,54.31,0,0,0,4.5-5.4c0,7.64,2.89,14.77,4.51,23.13,0,.09.09.15.13.23a10.89,10.89,0,0,0,0,1.61.57.57,0,0,0,1.13,0c1.35-8.83,8.62-16.07,15.29-22.63a24.68,24.68,0,0,0,3,9.8c2.67,4.81,7.26,11.2,13.4,11.09.07,0,.11,0,.17-.06a11.2,11.2,0,0,0,2.29,1.68c.54.31,1.23-.49.8-1-5.87-6.45-2.51-15.37.43-22.4,3.52-8.42,7.64-16.59,11.83-24.68,1.76-3.43,3.42-6.94,5-10.43,4-5.9,8.16-11.61,11.76-17.75,6.13-10.45,12.47-20.77,18.81-31.1,9.46-15.4,19.13-30.67,28.45-46.17,10.88-18.09,21.51-35.35,29.72-55.2C726.08,622.32,734.72,587.48,708.14,575.82Z" transform="translate(197.97 1.82)"/><path class="cls-12" d="M334.2,384.13c22.7,16.05,50.25,28.46,76.41,12.15,12.1-7.54,23-16.91,34.84-24.92,11.4-7.75,23.72-13.87,36.12-19.85,7.12-3.43,14.06-7,20.72-10.79a47.77,47.77,0,0,0-30.88,11.36,109.34,109.34,0,0,0-16.25-5.59c-16.37-4.19-34.34-5.3-51.2-5.14-27,.26-55.08,7.8-74,26.92a15.4,15.4,0,0,0-10.66-7.47c-6.17-1.08-12.26.52-18,3.37C312.87,368.79,323.62,376.66,334.2,384.13Z" transform="translate(197.97 1.82)"/><path class="cls-13" d="M353.68,376.26c6.65,3.44,11.09,9.29,16.88,13.86,8.11,6.41,20.59,7.45,30.13,3.74,9.31-3.62,15.36-10.38,21.33-18.07,10-12.9,29.25-17.35,43.69-26a109.42,109.42,0,0,0-10.55-3.32c-16.37-4.19-34.34-5.3-51.2-5.14-25.82.25-52.69,7.2-71.55,24.59C338.52,370.94,346.4,372.49,353.68,376.26Z" transform="translate(197.97 1.82)"/><path class="cls-13" d="M714,579.19a30,30,0,0,1,3.78,18.48c-2,20.79-12.34,39.68-23.91,56.66-9.36,13.77-19.56,27-29.46,40.31-10.65,14.38-21.3,28.85-33.35,42.11-7.07,7.8-17.44,22.22-28.74,24.13-10.36,1.74-13.92-7.79-14.24-16.52-1.11-29.75,9.67-59.92,25.67-84.62,9-13.83,19.29-26.78,32-37.45a276.18,276.18,0,0,1,31.64-22.48c-10.38,3.68-20.18,8.82-29.72,14.36a1.24,1.24,0,0,1-1.51-1.94c3-3.17,6.11-6.2,9-9.46-6.59,4.36-14.33,7.79-21.11,10.6-10.85,4.47-22.49,7.48-34.32,7.22-14.7-.34-35.54-4.85-43.52-18.79-6.72-11.73-4-24,7.93-30.62,1.47-.81,2.95-1.53,4.47-2.21a2.81,2.81,0,0,1-.31.08,165.71,165.71,0,0,0-26.36,11.23c-.5-2-1-3.92-1.54-5.86-5.63-20.06-13.21-39.4-21.44-58.52A173.57,173.57,0,0,1,531.7,482c10.27-20.08,24.41-37.67,40.76-53.12,16.66-15.75,35.85-28.68,55.89-39.74,10.7-5.92,21.77-11.19,32.93-16.23,10.61-4.78,21.33-7.38,32.6-9.91.33.15.64.25,1,.36-1.17-.36-3.52-5.81-4.7-7-4.65-4.71-11.49-6.24-17.91-6.35,3.82-4.13,7.67-8.23,12.76-10.79-2,1-6.19-2.35-8.18-2.73s-9.88-.61-10.9,1.5c2.06-4.29,3.89-9.52,3.53-14.35-.16-2.17-1.16-8.66-4.13-10.72-.12,6.19-6.34,9-10.69,12.63-2.51,1.34-5.12,2.56-7.64,3.7l5.9-2.09c3.41-1.2,6.8-2.2,10.33-1.15,4.84,1.45,4.19,7.94,1.28,10.74a24.38,24.38,0,0,1-3.82,3c4.76-.86,9.52-1.1,13.91.7.68.29,1.27,1.11.74,1.83-15.28,21.33-42.94,22-64.5,33-17.16,8.71-87.63,62.15-130.48,15.48a178.64,178.64,0,0,0-2.54,26.45,1.25,1.25,0,0,1-2.44.33,169.31,169.31,0,0,1-7.25-32.85c-6.85,33.69,5.28,67.56,17.14,99.12,12.5,33.26,25.84,67.17,21.94,103.39-6.06,56.35-40.7,108.39-92.31,132.94-25.73,12.24-55,18.92-83.4,20.31s-58.07-2.5-83.51-16c-25.27-13.41-47.93-36-55.52-64.28-7.34-27.32-1.49-55.8,8.65-81.61a455.4,455.4,0,0,1,42.29-81.64c18.9-29,42.64-54.13,64.72-80.6a129.1,129.1,0,0,0-18.47,14.14c-.69.64-2.26.3-2.11-.86,1-7.83,3.45-15.35,5.21-23-9,20.64-20.35,41.39-37,56.52-20.79,18.93-47.28,31.53-73.57,40.87C152.32,514.49,121.55,519.69,90,522c-3.12.23-18.64,2.95-13.38-5.3a28.57,28.57,0,0,1,9.63-8.84c-1.26.4-2.52.76-3.81,1.06-4.1.94-12.2,2.87-15.31-1.34-1.84-2.46-1-5.33,1.19-8.2-7.34,3.69-19.4,8.75-22,1.25a.43.43,0,0,0-.83.18,7.47,7.47,0,0,0,.09,1.19c0,6.53,6.88,9.55,12.34,11.11a41.6,41.6,0,0,0,11.28,1.41,37.58,37.58,0,0,0-3.74,3.08,74.19,74.19,0,0,0-8,9.13c-2,2.72-3.27,6-5.6,8.47a.31.31,0,0,0-.07.29.48.48,0,0,0,.4.74c6.49-.51,12.71-1.23,19.19-.35.51.08,1,.14,1.58.2-4.6,7.55-6.88,16.8-8.08,25.32a.28.28,0,0,0,.52.16,1.22,1.22,0,0,1,.07-.17.2.2,0,0,0,.22-.14C69.33,550.75,85,544.1,94.66,540.91c14.94-4.9,32.2-5.6,47.76-7.25a229.21,229.21,0,0,1,50.16,0c7.91.9,16.51,2.08,25,2.18-2.25,3.72-4.45,7.47-6.53,11.29-6.86,12.68-12.7,25.86-19.35,38.63a205.81,205.81,0,0,0-14.33,34.62c-23,24.46-41,55.67-54.27,86.29a337.11,337.11,0,0,0-13.32,36.45c2.21-6.67,4.51-13.34,7-19.9A196.23,196.23,0,0,1,132.27,691c4.58-7.42,10.06-16.61,18.21-20.53,7.68-3.69,12.65,4.37,14.66,10.67,2.46,7.67,2.87,15.56,3.8,23.48a145.89,145.89,0,0,0,5.39,26.6c5.16,16.5,14,30,22.69,44.78,6.37,10.85,11.93,22.76,12.07,35.58A50.22,50.22,0,0,1,194.62,847c-18.36,18.91-50,27.92-75,17.86A47.47,47.47,0,0,1,99,849.24c.53,2,1.13,3.91,1.84,5.85,4.53,12.38,13.07,22.95,23.36,31a78.81,78.81,0,0,0,42.4,16.4c18.21,1.38,36.59-3.37,54.55-5.72,18.24-2.37,34.51-7.37,50.25-17a12.41,12.41,0,0,1,1.46,1.75c2.77,4.06,3.61,9.43,4.07,14.21,1.18,12.34-3.2,21.94-13.37,29a.37.37,0,0,0-.18.32s-.05,0-.07.06c-.29.24-.07.77.3.61,5.07-2.21,10.32-.63,15.54-1.87a32.63,32.63,0,0,0,14.15-7.42,34.4,34.4,0,0,0,8-10.37c-.3,2.16-.63,4.31-.89,6.47a10.5,10.5,0,0,0-.84,1.82.51.51,0,0,0,.84.54c2.81-2.93,6.22-3.62,9.59-5.54a26.81,26.81,0,0,0,7.94-6.53,17.85,17.85,0,0,0,2.64-4.65,20.1,20.1,0,0,0,4.19,4.94c3.91,3.36,11.1,6.9,16.31,5.18a.5.5,0,0,0,.31-.31,16.26,16.26,0,0,0,3.45,1.43c.51.16.65-.59.26-.82-15.56-9.16-12.69-33.74-9.29-48.25A141.42,141.42,0,0,1,343,838.86a197.72,197.72,0,0,0,20.75,1.92c26.06.8,53.7-7.24,78-15.92a296.26,296.26,0,0,0,67.73-34.81c16.39-11.24,33.84-23.07,53.07-28.88-1.59,9.28-2.56,18.75-4.42,27.74-4,19.3-6.92,38.52-13.33,57.18a10.72,10.72,0,0,0-2,6,.47.47,0,0,0,.9.15c2-5.59,7.49-7.65,12.08-10.72a60.45,60.45,0,0,0,10.24-9,54.31,54.31,0,0,0,4.5-5.4c.06,7.64,2.89,14.77,4.51,23.13a1,1,0,0,0,.13.23,12.45,12.45,0,0,0,0,1.61.58.58,0,0,0,1.14,0c1.36-8.83,8.61-16.07,15.29-22.63a24.52,24.52,0,0,0,3,9.8c2.66,4.81,7.25,11.2,13.4,11.09.07,0,.1,0,.16-.06a11.48,11.48,0,0,0,2.29,1.68c.54.31,1.23-.49.8-1-5.86-6.45-2.5-15.37.44-22.4,3.51-8.42,7.63-16.59,11.82-24.68,1.78-3.43,3.42-6.94,5-10.43,4-5.9,8.15-11.61,11.76-17.75,6.13-10.45,12.46-20.77,18.81-31.1,9.45-15.4,19.12-30.67,28.45-46.17,10.88-18.09,21.5-35.35,29.73-55.2C725.35,624.07,733.27,593.17,714,579.19Z" transform="translate(197.97 1.82)"/><path class="cls-13" d="M192.58,533.62c7.91.9,16.51,2.08,25,2.18-2.21,3.67-4.39,7.36-6.44,11.14,3.32-3.92,6.75-11,10-14.93,6.93-13.22,14.32-23,22.31-35.23,18.89-29,40.85-58.87,64.72-80.6-6.64,4-21.82,20.94-27.59,26.06-.71.62,2.72-6.31,3.1-7.43,2.78-8.35,6.16-16.67,7.6-22.26-2.83,6.58-5.7,13.13-9.06,19.45-7,13.18-11.84,24-21.14,35.63-13.83,17.28-26.34,43.81-46,55.67-11.7,7.06-25.28,6.25-38.46,6.06-16.39-.22-33.17-.38-49.43,2.06-14,2.09-29.72,3.67-42,11.2a78.18,78.18,0,0,0-12.72,9.66c6.45-5.46,15.74-9.21,22.33-11.37,14.93-4.9,32.19-5.6,47.75-7.25A229.3,229.3,0,0,1,192.58,533.62Z" transform="translate(197.97 1.82)"/><path class="cls-13" d="M172.06,630.17c4.63,2.1,1.54,7.85,1.14,11.42-1.27,11.52-2.06,21.94-.9,33.49,1.95,19.13,5.81,39,16.91,55C180.9,703.7,176,676.22,177,648.47c.49-13.45,1.39-28.48,5.71-41.32,1.81-5.39,4.79-11.31,6.95-17.35a203.32,203.32,0,0,0-12.32,30.54q-4.36,4.63-8.49,9.59A4.91,4.91,0,0,1,172.06,630.17Z" transform="translate(197.97 1.82)"/><path class="cls-13" d="M558.39,443.38c-1.26,1-2.53,2-3.75,3.09-8.63,7.53-43.83,61.39-60.4,17.35-4.54-12.05-11-21.8-12.85-34.58-.68-4.73,1.6-17.37-1.26-37.36-1.29,8.33-1.13,30.73-1.2,39.22,0,1.43-3.82-9.55-4.34-10.84-5.58-13.62-4.32-20.69-5.72-29.78-.46,6.43-.94,12.87.51,19.21,1.73,7.73,4.8,15,7.29,22.48,4.6,13.91,8.86,27.9,14.5,41.45,6.11,14.64,13.34,28.75,22.88,41.49,3.54,4.73,7.11,9.43,10.46,14.24-1.82-4.49-3.71-9-5.63-13.45A173.61,173.61,0,0,1,531.7,482,185.94,185.94,0,0,1,558.39,443.38Z" transform="translate(197.97 1.82)"/><path class="cls-13" d="M608.88,836.76c-1.93,1.45-4,2.28-6.21,1.81-6.91-1.52-7.5-13.52-8-21.08-3.82,6.29-10.94,17.73-16.5,12.64-4.8-4.39-4-12.51-2.93-19.87-1.79,3.67-4.29,6.7-8.74,7.15a1.22,1.22,0,0,1-1.19-.91c-1.31-8.71.56-17,2.44-25.54,2.18-9.9,4.09-19.86,5.82-29.85,3.37-19.5,6.14-39.54,12.22-58.43,5.85-18.1,14.74-33.8,26-49,5.35-7.21,10.66-14.46,17.07-20.77,5.34-5.23,11-10.25,15.88-15.89C622,629.85,605.68,651.87,590,672.21c-6.87,8.89-14.16,19.76-23.37,26.4-3.09,2.22-7.61,4-10.27.15-3.38-4.93-3.23-12.26-3.32-18-.13-8.3-.16-16.59-.25-24.89-.26-25.89-.37-52.89-11.88-76.56,0,1.82,0,3.63.14,5.45,3.89,76.75-10.41,168.23-116,219.87C399.7,817,371.27,822.5,343.09,822.18c-28.8-.32-59.69-5.68-85.34-19.34a309.2,309.2,0,0,1-42.13-27.62c-7.83-6-16.25-12.56-22-20.78,4.34,10,12.31,19.39,19.05,27.13A146.16,146.16,0,0,0,251.85,813c9.14,5,19.82,7.93,27.86,14.78,19.26,16.43-10.74,33.27-24,39.12a400.32,400.32,0,0,1-86.45,26.79c-13.54,2.56-26.77.87-39.26-3.52a78.9,78.9,0,0,0,36.63,12.34c18.21,1.38,36.6-3.37,54.54-5.72,18.26-2.37,34.53-7.37,50.27-17a12.37,12.37,0,0,1,1.45,1.75c2.77,4.06,3.61,9.43,4.07,14.21,1.19,12.34-3.19,21.94-13.36,29a.37.37,0,0,0-.18.32l-.08.06c-.29.24-.07.77.3.61,5.07-2.21,10.33-.63,15.55-1.87a32.69,32.69,0,0,0,14.15-7.42,34.53,34.53,0,0,0,8-10.37c-.3,2.16-.62,4.31-.89,6.47a9.8,9.8,0,0,0-.84,1.82.51.51,0,0,0,.85.54c2.81-2.93,6.22-3.62,9.59-5.54a26.9,26.9,0,0,0,7.93-6.53,17.59,17.59,0,0,0,2.65-4.65,19.88,19.88,0,0,0,4.19,4.94c3.9,3.36,11.08,6.9,16.3,5.18a.49.49,0,0,0,.32-.31,15.84,15.84,0,0,0,3.45,1.43c.5.16.64-.59.25-.82-15.55-9.16-12.69-33.74-9.28-48.25A141.42,141.42,0,0,1,343,838.86a197.53,197.53,0,0,0,20.74,1.92c26.06.8,53.71-7.24,78-15.92a296.46,296.46,0,0,0,67.73-34.81c16.39-11.24,33.84-23.07,53.06-28.88-1.59,9.28-2.56,18.75-4.42,27.74-4,19.3-6.92,38.52-13.32,57.18a10.64,10.64,0,0,0-2,6,.47.47,0,0,0,.89.15c2-5.59,7.5-7.65,12.08-10.72a60.13,60.13,0,0,0,10.25-9,54.31,54.31,0,0,0,4.5-5.4c0,7.64,2.89,14.77,4.51,23.13,0,.09.09.15.13.23a10.89,10.89,0,0,0,0,1.61.57.57,0,0,0,1.13,0c1.35-8.83,8.62-16.07,15.29-22.63a24.68,24.68,0,0,0,3,9.8c2.67,4.81,7.26,11.2,13.4,11.09.07,0,.11,0,.17-.06a11.2,11.2,0,0,0,2.29,1.68c.54.31,1.23-.49.8-1C607.55,847,607.6,841.79,608.88,836.76Z" transform="translate(197.97 1.82)"/><path class="cls-13" d="M270.57,880.1a156.71,156.71,0,0,0,16.12-13.58c6.86-6.89,12-9.29,16.63-18-10.14,10.25-21.4,19.62-33.91,26.78-14.44,8.28-30.63,13.77-46.69,18-16.6,4.4-34.15,8.15-51.4,8.27-4.1,0-8.62.13-13-.22a77.26,77.26,0,0,0,8.28,1.11c18.21,1.38,36.6-3.37,54.54-5.72,17.69-2.3,33.51-7.11,48.79-16.15C270.13,880.48,270.33,880.28,270.57,880.1Z" transform="translate(197.97 1.82)"/><path class="cls-13" d="M348.93,838.34a250,250,0,0,1-60.65-17.48c-28.82-12.3-58.63-27.7-81.58-49.8,2.22,2.42,4.51,4.75,6.58,7.09,6.42,7.26,14.51,12.4,22.88,17.12,16.87,9.55,33.17,19.85,51,27.72a296.38,296.38,0,0,0,31.12,11.92c4.15,1.3,8.31,2.3,12.48,3.46,2.21.61,4,1.25,5.52,3a16.58,16.58,0,0,1,3.36,6.43c1.09-3,2.22-6,3.45-8.91a197.53,197.53,0,0,0,20.74,1.92,133.39,133.39,0,0,0,17.47-.69A182,182,0,0,1,348.93,838.34Z" transform="translate(197.97 1.82)"/><path class="cls-13" d="M551,824.43c1-3.43,1.94-6.87,2.72-10.37,2.79-12.68,6.54-25.15,9.34-37.84,2.7-12.34,5.14-24.74,7.94-37.06,5.33-23.26,11.87-46.46,24.52-67,10.7-17.32,24.82-31.4,39-45.71a3.17,3.17,0,0,1-.36.28,156.14,156.14,0,0,0-15.13,13c-12.78,12.8-23.77,27-32,43.14-12.45,24.46-24.89,78.44-24.36,78.27-1.59,9.28-2.56,18.75-4.42,27.74C555.73,800.82,553.67,812.69,551,824.43Z" transform="translate(197.97 1.82)"/><path class="cls-6" d="M349.09,918.62c2.72,7,2.72,14.8-3.4,20.55s-14.64,7.24-22.63,9.29c-7.1,1.8-13.22,4.95-19.31,8.43-10,6.12-19.35,13.62-28.58,21.54-18.05,15.53-37.48,32.78-62.87,31-9.68-.67-20.43-5.11-21.67-16-1.12-9.5,11.58-14.16,18.59-16.46,9.2-3,18-1.73,27.46-2.28,11.66-.68,20.69-9.25,28.2-17.33.15-.17-.11-.45-.28-.3-5.32,4.43-10.61,9.17-16.84,12.28-7.75,3.88-15.51,2.15-23.71,2.19A60.29,60.29,0,0,0,199.64,977c-6.21,2.84-13,8.22-13,15.73,0,.49,0,1,.08,1.46-3.23-.09-6.53.69-9.78.7-5.92,0-12.34-1.38-16.44-5.94-9.66-10.7,11.21-22.13,19.3-23,6-.61,12.09.53,18.07.56,6.48,0,13.18-1.2,19.49-2.52a115.13,115.13,0,0,0,33-12c.33-.19,0-.73-.31-.57-15.34,6.93-31.29,10-48,11.46-8.28.7-16.46-1.06-24.73-.32-5.93.54-11.18,3.76-15.54,7.59a20.21,20.21,0,0,0-6.66,10.5c-12-3.89-8.64-17.78-3-25.52,8.5-11.64,20-3.62,30.85-.6,10.23,2.86,21.83,2,32.26,1,9.77-1,19.87-3.32,27.94-9.14.24-.17,0-.62-.25-.48-13.24,6.28-27.26,7.58-41.74,7.25a69.5,69.5,0,0,1-24.72-4.81c-5.61-2.21-10.45-4.7-16.61-3.49a18.55,18.55,0,0,0-10.2,6.53c-7-6.4,3.28-14.44,9.37-16.6a16.49,16.49,0,0,1,2.39-.63c9.39-2.9,20.83,1.28,30.31,3.33,10.66,2.31,21.69,3.87,32.62,3,8.57-.64,16-2.93,23.65-5.74a78.59,78.59,0,0,1-9.78,2.47c-7.58,1.38-15.33,1.36-23,1.08-8.68-.32-17.72-.7-26.13-2.9-10.93-2.84-23.85-9.36-34.88-3.15-8.47,4.78-16.12,14.66-7,22.49-6.87,11.08-7,27.53,7.64,29.8a13.81,13.81,0,0,0,4.76,9.23c6,5.56,20.22,8,28,4.28,2.05,6.24,7.49,10.76,13.86,13.07,22.31,8.08,44.79-4.57,61.46-18.33,11.59-9.58,32.69-26.11,45.17-34.6,14-9.53,42.09-3.41,44.25-28.25A16.14,16.14,0,0,0,349.09,918.62Z" transform="translate(197.97 1.82)"/><path class="cls-14" d="M302.81,367.62C284.69,379.8,268.26,395.81,252.6,411c-17,16.44-35,28.79-57.12,37.21-9.81,3.72-20.47,5.54-30.61,8.2-10.54,2.75-20.79,7-30.82,11.24-19.63,8.23-35.55,19.52-64,33.45-.57.28,1.76-.83,2.32-1.15,10.72-6.18,25.26-10.49,36.74-15.34,10.26-4.33,20.68-8.31,31.08-12.28,21.2-8.12,42.33-16,63.31-24.69,17.95-7.41,36.11-15.83,50.58-29,17.27-15.7,33.86-32.8,50.17-49.44C305.07,368.28,303.76,367,302.81,367.62Z" transform="translate(197.97 1.82)"/><path class="cls-14" d="M617.75,342.77c-26,6.22-52.94,7-79.58,4.86-19.38-1.57-38.09-6.52-55.69,4.8-.77.48-.11,1.8.73,1.43,12.6-5.36,23-5.77,36.33-3.14a172.47,172.47,0,0,0,32.36,3.48c22.17.18,45.49-2.17,66.16-10.6A.44.44,0,0,0,617.75,342.77Z" transform="translate(197.97 1.82)"/><path class="cls-14" d="M145,686.48c.42-.91-.89-1.45-1.37-.64-16.32,27.44-29.44,56.16-35.95,87.54-5.24,25.24-7.69,62.35,10.83,83.14a1.28,1.28,0,0,0,2.09-1.47c-15.32-23.77-9.78-58.38-4.65-84.71C121.6,741.31,132.75,713.3,145,686.48Z" transform="translate(197.97 1.82)"/><path class="cls-14" d="M711.94,578.48c-42.35-18.39-99.12-20.52-141.83-2.86a.37.37,0,0,0,.25.69c46.07-12.94,94.88-3.71,140.8,4.67A1.33,1.33,0,0,0,711.94,578.48Z" transform="translate(197.97 1.82)"/><path class="cls-14" d="M683.79,604.64C634,625.94,602.84,670.5,594.5,723.22a.5.5,0,0,0,1,.17c6.51-24.42,15.33-47.7,30.44-68.18,15.63-21.2,36.59-35.3,58.86-48.62A1.11,1.11,0,0,0,683.79,604.64Z" transform="translate(197.97 1.82)"/><path class="cls-14" d="M300.8,435.43c-34.23,42.34-73.53,82.38-93,134.29-16.5,44-13.77,110.22,31.5,136.92.78.45,1.32-.69.78-1.24-84.77-85.72,9.93-195.18,62.18-268.73C303,435.67,301.6,434.45,300.8,435.43Z" transform="translate(197.97 1.82)"/><path class="cls-11" d="M592.74,53.65C582.09,32.46,566,10.55,543.27,1.48c-21.91-8.75-44.61.92-60,17.17C466,36.87,456.1,61.92,448,85.25c-1.15,3.26-2.25,6.56-3.32,9.86-13.82-2.78-28-3.55-42.07-3.77a423.12,423.12,0,0,0-54.33,2.47,248.21,248.21,0,0,0-49.9,10.84,122,122,0,0,0-19.86,8.18c-.83.45-1.64.93-2.46,1.38-10.35-12-18.38-25.08-25.55-39.4-6.06-12.09-11.65-24.59-20.87-34.68-19.67-21.53-47-10.77-65.27,6.65-22.11,21.09-36.82,51.8-44.46,81-3.83,14.55-6.15,30.65-3.92,45.4,0,6.62.92,13,4,19.42a30.43,30.43,0,0,0,1.91,3.36.55.55,0,0,0,0,.58c5.79,8.39,11.61,14.59,22.14,16,15.32,2.14,29-2.17,43.28-7.22,17.86-6.33,36.61-13.9,53.63-23.74a129.74,129.74,0,0,0-8.46,20.56,188.63,188.63,0,0,0-5.52,20c-11.47-2.7-23.24-3.09-35.34.45-14.25,4.16-22,19.19-15.18,32.3,3.43,21.81,17.36,39.93,33.74,55.16,24.08,22.41,53.47,36.37,84.65,46,33.39,10.33,70.43,20.35,105.64,15.9,13.09-1.65,25.62-6.15,37.62-11.57,50.3-18.14,98.5-48.89,124-96.63,11.54-21.57,14.31-50.58-7.23-66.83-15.84-12-34.34-9.17-51.4-2-2.46-8-4.95-15.92-7.94-23.69a119.47,119.47,0,0,0-10.7-20.85c23.05,14.53,51.2,22,77.93,23.08,14.79.6,30.39-2.38,40.93-13.52a27.06,27.06,0,0,0,6.9-14.3,1.9,1.9,0,0,0,2.44-1.95C611.71,112.69,606.8,81.55,592.74,53.65Z" transform="translate(197.97 1.82)"/><path class="cls-13" d="M240.9,181.58a129.74,129.74,0,0,0-8.46,20.56,188.63,188.63,0,0,0-5.52,20A74.6,74.6,0,0,0,208.14,220c.4,0,.79,0,1.18,0a60.9,60.9,0,0,1,15.93,4,109.58,109.58,0,0,1,15.55,6.88A15.69,15.69,0,0,1,237.7,220c.79-8.68,3.59-17,5.75-25.38,2.3-9,5.07-17.87,8-26.65,5.44-16.09,12-32.18,23.06-45.35a83.09,83.09,0,0,1,16.95-15.58,103.32,103.32,0,0,0-13,5.76c-.83.45-1.64.93-2.46,1.38-2.07-2.39-4-4.86-5.93-7.35-.63,11-3.76,22.49-9.56,31.42a1.25,1.25,0,0,1-2.26-.29c-8-22-9.75-45.64-19.67-67.07C230,52.36,215.93,33.88,193,39.7,168.27,46,148.3,69.88,138.7,92.55c-10.31,24.3-12.19,50.88-18,76.39-.34,1.48-2.27.95-2.44-.34-1.8-14-.35-27.81,1.77-41.58-.07.24-.14.48-.2.71-3.83,14.55-6.15,30.65-3.92,45.4,0,6.62.92,13,4,19.42a30.43,30.43,0,0,0,1.91,3.36.55.55,0,0,0,0,.58c5.79,8.39,11.61,14.59,22.14,16,15.32,2.14,29-2.17,43.28-7.22C205.13,199,223.88,191.42,240.9,181.58Z" transform="translate(197.97 1.82)"/><path class="cls-13" d="M611.61,123.84A43.35,43.35,0,0,1,607.22,137a1.26,1.26,0,0,1-2.28-.28c-2.17-8.37-2.23-16.9-2.57-25.48-.78-19.59-8-37.22-16.16-54.83C579.56,42.14,571,27.19,557.88,17.9,545,8.81,529.34,6.35,515,13.87c-12.75,6.7-22.88,17.89-29.94,30.32a87.53,87.53,0,0,0-11,32.75c-1,8-1.32,18.17-6.4,24.87C463,108,455.08,102,452.43,96.9a30.2,30.2,0,0,1-2.92-16.08c-.52,1.48-1,3-1.55,4.43-1.09,3.11-2.14,6.25-3.17,9.39,11,9,18,25.56,23.46,36.8,12.71,26.13,30.27,53.63,21.84,83.32,7.08-7.21,14.3-14.58,23-19.74a54.45,54.45,0,0,1,15.41-6.26c-8.37.3-16.85,2.71-25,6.16-2.46-8-4.95-15.92-7.94-23.69a119.47,119.47,0,0,0-10.7-20.85c23.05,14.53,51.2,22,77.93,23.08,14.79.6,30.39-2.38,40.93-13.52a27.06,27.06,0,0,0,6.9-14.3,1.9,1.9,0,0,0,2.44-1.95C612.73,137.07,612.28,130.44,611.61,123.84Z" transform="translate(197.97 1.82)"/><path class="cls-13" d="M566.17,210.13c1.49,6,1.85,12.19-.09,18.35A52.28,52.28,0,0,1,550,252.74c-15.5,13.2-35.06,20.35-54,27-7.37,2.57-17.76,8.15-25.7,5-7.51-3-12.36-10.83-17.89-16.35-9.4-9.37-19.46-17.48-32.89-19.63-12-1.91-24.24-1.29-36.25,0-23.06,2.51-49.84,5.74-69.3,19.47-5,3.53-10.12,8.15-12.08,14.15-1.66,5.09-2.77,10.37-4.58,15.43-3.05,8.48-8.49,13.83-17.7,15.08-15.07,2-29.2-2.05-42.17-9.66-14.09-8.25-28.19-17.85-39.9-29.27-9.1-8.87-15.83-17.67-19.42-29.82-.27-1-1.49-4.38-2.32-8a21.38,21.38,0,0,0,.62,18.68c3.43,21.81,17.36,39.93,33.74,55.16,24.08,22.41,53.47,36.37,84.65,46,33.39,10.33,70.43,20.35,105.64,15.9,13.09-1.65,25.62-6.15,37.62-11.57,50.3-18.14,98.5-48.89,124-96.63C570.93,247.19,574.6,226.3,566.17,210.13Z" transform="translate(197.97 1.82)"/><path class="cls-13" d="M460.38,319.22c-.78-1.84-1.69-3.59-2.6-5.32-1,24.89-29.65,48.66-54.13,35-9.79-5.45-21.83-18.83-5-23.2,20.55-5.33,45-22.23,44.73-45.61-10.63,8.37-19.51,16.33-33.08,21-13.27,4.52-27.46,8.12-41.52,8.68a160.66,160.66,0,0,1-36.93-2.93l-2-.38c4.41,5.17,8.84,10.29,14.79,14,10,6.32,19.67,7.83,31.09,9.57a2.3,2.3,0,0,1,1.72,2.18c1.4,16.71-8.48,25.31-25.09,21.53-8.18-1.88-17.63-3.39-24.51-8.49-4.09-3-3.06-7.64-1.22-11.74-7.48,4.81-13.35,14.19-7.59,22.49,3.51,5.05,8.83,8.11,14.72,9.77,24.43,6.88,48.93,9.81,73.91,4.61,17-3.53,40.14-8.64,48.88-25.73C460.31,337.21,463.91,327.57,460.38,319.22Z" transform="translate(197.97 1.82)"/><path class="cls-15" d="M459.57,318.62c0-.25-.41-.35-.5-.09-1,3.3-1.24,6.69-2.48,9.93-1.47,3.79-4.44,6.92-7.07,9.93-6.18,7.1-11.42,15.22-21.16,17.41-8.34,1.88-19.32-2.57-27.27-5.42-7.42-2.66-11.85-7.13-15.15-13.94-1.15-6.76-1.28-13.57-2.77-20.33a2.11,2.11,0,1,0-4.09.95c2.25,8.77,7,20.79,3.76,29.64-2.94,8.19-11,15.08-19.69,15.93-7.65.73-17.24-1.75-24.21-4.77a50.76,50.76,0,0,1-10.56-6.05,19.12,19.12,0,0,1-5.3-6.38c-2.47-4.64,2.05-9.85,4.45-13.32a.28.28,0,0,0-.42-.36c-8.38,8.33-9.19,16.22.33,24.08,8.59,7.09,21.23,7.57,31.79,8.83,11.11,1.3,19.42-3.24,25.45-12.73a14.86,14.86,0,0,0,2.48-8.7c6.95,12.3,26.06,16,39.06,15.18,10.06-.64,17.38-7.67,23.55-14.92S461.1,328.74,459.57,318.62Z" transform="translate(197.97 1.82)"/><path class="cls-16" d="M459,316.94c-.11,0-.08.14,0,.14S459,316.94,459,316.94Z" transform="translate(197.97 1.82)"/><path class="cls-17" d="M348.08,329.12c-24.36-10.24-48.71-17.36-75.26-19-24.83-1.52-52.75.76-76.53,8.3-.27.1-.17.58.13.52a321,321,0,0,1,75.7-4.47c25.95,1.38,50.36,8.74,74.07,18.94C349,334.61,350.89,330.29,348.08,329.12Z" transform="translate(197.97 1.82)"/><path class="cls-17" d="M338,332.64a183.61,183.61,0,0,0-133.06,8.69c-.15.06-.06.32.1.25,19.54-8.15,41.16-11.27,62.2-12.52,23.05-1.38,46.86.7,68.93,7.71C338.88,337.64,340.73,333.53,338,332.64Z" transform="translate(197.97 1.82)"/><path class="cls-17" d="M336.73,340.88c-9.43-2.38-21.15.23-30.68,1.26a336.64,336.64,0,0,0-35.53,5.92c-18.13,4-38.4,10.42-52.49,23.05a.29.29,0,0,0,.34.47C235,360.92,253.63,355.8,272.83,352c11.18-2.2,22.34-4.11,33.67-5.41,9.84-1.12,21-.23,30.49-3.1C338.43,343.09,337.94,341.2,336.73,340.88Z" transform="translate(197.97 1.82)"/><path class="cls-17" d="M557.22,269.69c-23.56-1.12-48,7.22-69.6,16a163.11,163.11,0,0,0-30.05,16.42c-7.9,5.37-17.34,11.37-22,20-1,1.93,1.82,3.4,3.14,1.9,13.91-15.62,33.21-27.44,52.09-36.17,9.89-4.58,20.53-7.43,30.94-10.63,11.48-3.51,23.43-6.3,35.44-7.19C557.43,270.06,557.44,269.71,557.22,269.69Z" transform="translate(197.97 1.82)"/><path class="cls-17" d="M553.51,300.35c-20.19-1.42-39.8-1.19-59.77,2.34-17.32,3.08-37.87,7.87-51.25,20.09a1.24,1.24,0,0,0,1.46,2c17-9.42,33.28-15.57,52.51-19A249,249,0,0,1,523.2,302c10.09-.7,20.21-.4,30.29-.93C553.9,301,553.92,300.38,553.51,300.35Z" transform="translate(197.97 1.82)"/><path class="cls-17" d="M563.7,326.29c-10.54-2.26-21.21-4.06-31.93-5.33s-21.6-1-32.4-1.23c-10.54-.27-21-.09-31.49,1.59-9.69,1.54-19.54,5.45-28.55,9.25a1.2,1.2,0,0,0,.53,2.31c9.71-1.28,18.84-5.5,28.42-7.44,10.27-2.07,21.08-1.81,31.48-1.74,11.32.08,22.75-.53,34,.32,10,.75,19.84,2.6,29.9,2.47C563.82,326.49,563.81,326.3,563.7,326.29Z" transform="translate(197.97 1.82)"/><path class="cls-18" d="M413.54,366.38c-.37-2.88-.6-5.78-.83-8.68-1.5-.23-3-.55-4.48-.91-7.87-1.9-15.33-5.53-19.7-11.48a20.73,20.73,0,0,1-1.37-2.08,14.35,14.35,0,0,1-1.61,7.12,16.19,16.19,0,0,1-.87,1.58c-3.72,5.87-8.33,9.81-13.92,11.69a21.6,21.6,0,0,1-2.69.68c.6,11.27,3.18,22.94,13.05,29.58,5.06,3.39,14.39.41,14.76-4.2a9.46,9.46,0,0,0,6.26,1c6,.76,10.16-3.94,11.69-10C415,376.17,414.1,370.92,413.54,366.38Z" transform="translate(197.97 1.82)"/><path class="cls-15" d="M413.54,366.38c-.37-2.88-.6-5.78-.83-8.68-1.5-.23-3-.55-4.48-.91.55,5,1.21,10,1.72,15.06a44,44,0,0,1-.08,10.51c-.67,4.67-4.1,5.92-7.92,6.6-8.61-1.39-9.27-18.86-10.59-25.54-1.2-5.95-2.06-12-2.83-18.11a20.73,20.73,0,0,1-1.37-2.08,14.35,14.35,0,0,1-1.61,7.12,183.16,183.16,0,0,0,4.38,28.26c.57,2.53,1,5.43,2.27,7.71.13,5.33-4.29,6.68-9.41,4.79s-7.82-6.61-9.58-11.44c-1.36-3.78-1.39-8.73-1.91-12.72-.13-1.11-.35-2.22-.54-3.33a21.6,21.6,0,0,1-2.69.68c.6,11.27,3.18,22.94,13.05,29.58,5.06,3.39,14.39.41,14.76-4.2a9.46,9.46,0,0,0,6.26,1c6,.76,10.16-3.94,11.69-10C415,376.17,414.1,370.92,413.54,366.38Z" transform="translate(197.97 1.82)"/><path class="cls-19" d="M312.37,267.88c18.74-12.36,63.56-28.52,106.4-22.22s30.91,34.53,6.3,56.31-62.91,24.76-92.14,9.18S295.53,279,312.37,267.88Z" transform="translate(197.97 1.82)"/><path class="cls-3" d="M444.26,257.27c-1.36,5.84-8.52,10.22-15.47,12.74a288.16,288.16,0,0,1-55,13.62c-17.26,2.54-42.87,7.4-59.36-1.16-4.29-2.25-7.25-5.5-8.17-8.93-7.59,10.66,2.1,24.47,26.69,37.61,29.23,15.58,67.52,12.6,92.14-9.18C441.93,287.05,452.82,269.12,444.26,257.27Z" transform="translate(197.97 1.82)"/><path class="cls-10" d="M397.24,248.35c-14.52-2.15-29.39,2.43-43.28,6.22-13.73,3.73-29.21,6.1-38.58,17.8-.7.87.33,2.32,1.39,1.79,12.3-6.12,26-8.65,39.18-12.05,13.74-3.52,27.65-3.52,41.28-6.39C401.28,254.87,401.58,249,397.24,248.35Z" transform="translate(197.97 1.82)"/><path class="cls-10" d="M431.11,253.39c-4.22-6.21-16.13-6-22.47-4.07a2.61,2.61,0,0,0-.81.42c-2.54.87-4.1,2.79-2.95,6.37,1.22,3.85,7.29,4.16,10.46,4.17a81.8,81.8,0,0,0,13.43-1.23A3.57,3.57,0,0,0,431.11,253.39Z" transform="translate(197.97 1.82)"/><path class="cls-15" d="M413.54,366.38c-.37-2.88-.6-5.78-.83-8.68-1.5-.23-3-.55-4.48-.91-7.87-1.9-15.33-5.53-19.7-11.48a20.73,20.73,0,0,1-1.37-2.08,14.35,14.35,0,0,1-1.61,7.12,16.19,16.19,0,0,1-.87,1.58c-3.72,5.87-8.33,9.81-13.92,11.69a21.6,21.6,0,0,1-2.69.68c.44,8.17,1.93,16.55,6.46,23.06-1.95-6.27-2.07-13.14.71-18.19,2-3.64,7.94-5.89,11.23-2.61a23.39,23.39,0,0,1,4.07,5.77c.18-4.33,1.15-8.72,4.78-9.57,5-1.17,13.62-.35,16.05,4.92a31.35,31.35,0,0,1,2.43,13.09l0-.08C415,376.17,414.1,370.92,413.54,366.38Z" transform="translate(197.97 1.82)"/><path class="cls-20" d="M295.09,233.84C316.31,222.26,374,195,438.52,215.76c13.33,4.28,14.65,10.05,1.91,21.48s-11.53,4.54-25.52,2.32-74.81,4.56-90.62,12-17.42,3.74-25.21.61S278.25,243,295.09,233.84Z" transform="translate(197.97 1.82)"/><path class="cls-21" d="M262.73,250S299,214.75,371.44,208.7,468,217.85,479,224.46c0,0-19.6-15.78-40.46-21.59,0,0,3.64-1.8-2.39-19.33s-18.52-31.1-19.21-5.88,2.53,23.45,2.53,23.45-47.06-10.2-97.94,9.48c0,0,1.09-36.79-6.05-39.83s-28,35.75-16,46C299.47,216.8,272.08,235.18,262.73,250Z" transform="translate(197.97 1.82)"/><path class="cls-15" d="M368.19,204.9c-18.77,2.72-35,5.66-52.83,12.32a153.31,153.31,0,0,0-46.72,27.46.15.15,0,0,0,.17.25c7.3-4.63,14.37-9.66,22.11-13.54,7.56-3.78,15.73-6.7,23.64-9.7C332,215.05,351.31,211.54,370,209s31.12-2.72,50.13-1.28c16.57,1.26,39.32,7.21,54.44,14.05C475.39,222.11,437.46,194.9,368.19,204.9Z" transform="translate(197.97 1.82)"/><path class="cls-22" d="M316.53,203.76c.1-13.42-.45-22.91-5.09-20.25s-9.22,24.09-6.52,29.78,5.76,5.14,8.39,3.6S316.5,208.3,316.53,203.76Z" transform="translate(197.97 1.82)"/><path class="cls-23" d="M309.2,187.52c-2.29,4.3-1.87,7.82-.79,9.32s2.66-1.24,3.3-5.79S312.28,181.72,309.2,187.52Z" transform="translate(197.97 1.82)"/><path class="cls-24" d="M325.69,150.79s-1-18.57-9.52-19.06-17.44,20-17.86,22.46,2.42,5.69,6,1.46,9.83-10.71,13.28-4S328.1,169.55,325.69,150.79Z" transform="translate(197.97 1.82)"/><path class="cls-15" d="M325.69,150.79s-1-18.57-9.52-19.06-13.37,13.62-13.82,16.07,1,2.31,4.61-1.91,8.9-9.61,12.35-2.87S326.19,156.49,325.69,150.79Z" transform="translate(197.97 1.82)"/><path class="cls-22" d="M420.73,192.79c-1.11-13.37-1.27-22.87,3.57-20.57s11,23.33,8.74,29.2-5.37,5.57-8.1,4.22S421.12,197.33,420.73,192.79Z" transform="translate(197.97 1.82)"/><path class="cls-23" d="M426.81,176.05c2.61,4.11,2.46,7.66,1.49,9.23s-2.72-1-3.72-5.54S423.3,170.5,426.81,176.05Z" transform="translate(197.97 1.82)"/><path class="cls-24" d="M410.26,139.88s1.48-18.54,10-18.83,15.91,18.11,16.68,20.47c4,12.23-7.43.78-10.92-3.52s-8.59,3.21-12.19,9.87S409.62,145.57,410.26,139.88Z" transform="translate(197.97 1.82)"/><path class="cls-15" d="M410.26,139.88s1.48-18.54,10-18.83,13,13.92,13.43,16.38-1.08,2.29-4.56-2-8.66-9.82-12.26-3.16S409.62,145.57,410.26,139.88Z" transform="translate(197.97 1.82)"/><path class="cls-19" d="M597.84,118c.61-10.66-3.19-22.19-6-31.89-7.36-25.36-20-53.89-45-66.27C523.16,8,504,27.14,494.11,47.06A191.88,191.88,0,0,0,477,99.79a79,79,0,0,0-2.91,28.35c0,.3,0,.59-.05.88s.33.39.56.28c0,.6.11,1.2.2,1.79a.48.48,0,0,0,.94,0A94.27,94.27,0,0,1,479,115.67c2.78,10.55,12.58,18.48,22.1,23.45,13.23,6.92,28.72,11,43.18,14.58,13.59,3.32,30.2,5.66,42.3-3.11C596.76,143.2,599.06,130.37,597.84,118Z" transform="translate(197.97 1.82)"/><path class="cls-19" d="M231.31,76.91c-8.19-18.63-25-35.91-47.07-28.86-23,7.37-35.6,35.65-43.55,56.07a257.27,257.27,0,0,0-12.8,43.18c-2.59,13.16-4.91,29.77,2.89,41.68s24.61,8.28,35.7,4.55c9-3,17.2-7.84,25.67-12a181.67,181.67,0,0,0,24.43-13.89c10.34-7.2,19.16-17.43,23.55-29.38.42-1.13,3,11.44,4,18.86.23,1.69,1.82-15.54,1-23.23C243.13,114.36,239.22,94.86,231.31,76.91Z" transform="translate(197.97 1.82)"/><path class="cls-3" d="M527.39,131.31c-10.29-19.56-7.26-46.71-.38-67.06,3.14-9.31,7.58-17.72,17-21.82,7.21-3.17,15.32-1.29,21.46,3.31,10,7.48,16.52,18,22.66,28.7-7.75-22-20.05-44.14-41.22-54.64C523.16,8,504,27.14,494.11,47.06A191.88,191.88,0,0,0,477,99.79a79,79,0,0,0-2.91,28.35c0,.3,0,.59-.05.88s.33.39.56.28c0,.6.11,1.2.2,1.79a.48.48,0,0,0,.94,0A94.27,94.27,0,0,1,479,115.67c2.78,10.55,12.58,18.48,22.1,23.45,13.23,6.92,28.72,11,43.18,14.58a106,106,0,0,0,15.19,2.68C546.26,151.88,534.54,144.89,527.39,131.31Z" transform="translate(197.97 1.82)"/><path class="cls-3" d="M245.13,133.93c-2-19.57-5.91-39.07-13.82-57-8.19-18.63-25-35.91-47.07-28.86-23,7.37-35.6,35.65-43.55,56.07-2.3,5.87-4.4,11.87-6.31,17.94a148.66,148.66,0,0,1,21.4-32.13c10-11.15,31.06-29.32,44.24-11.49,7.52,10.17,9.67,24.63,10.93,36.91,1.4,13.49,2.25,29.3-2.08,42.38-1.88,5.7-3.77,12-6,18.32a151.83,151.83,0,0,0,13.72-8.37c10.34-7.2,19.16-17.43,23.55-29.38.42-1.13,3,11.44,4,18.86C244.34,158.85,245.93,141.62,245.13,133.93Z" transform="translate(197.97 1.82)"/><path class="cls-14" d="M561.57,210.64c-21.1-33.95-54.72-6.3-75.8,11.45-.37.31-.08,1,.43.81,10.43-4.33,19.14-11.93,29.23-17,16-8.05,29.47-2,42.84,7.82A2.28,2.28,0,0,0,561.57,210.64Z" transform="translate(197.97 1.82)"/><path class="cls-14" d="M255.53,246.12c-17.24-14.93-66-38.23-77.36-3.88a1.58,1.58,0,0,0,2.63,1.66c21.55-20.14,51.59-7.68,74.06,3.29A.64.64,0,0,0,255.53,246.12Z" transform="translate(197.97 1.82)"/><path class="cls-14" d="M557.76,10.1c-10.21-7.55-20.24-11.25-33-10-10.53,1-20.26,5.85-28.54,12.23C478.41,26,466.71,47.74,458.59,68.22a.23.23,0,0,0,.42.19c8.88-18.7,19.72-36.69,35.5-50.4A59.48,59.48,0,0,1,522,4.09a54,54,0,0,1,15.49-.31c7.47.72,13,4.25,19.43,7.71C557.72,11.93,558.51,10.66,557.76,10.1Z" transform="translate(197.97 1.82)"/><path class="cls-14" d="M240.15,57.93c-5-9.24-12.14-18-21-23.77-19.31-12.57-43.32,1.47-57.2,16-.29.31.19.83.51.55C171,43,180.72,36.84,191.78,33.55c11.37-3.36,21.69-.55,30.66,6.86,15.17,12.58,22.9,33.47,31.75,50.42.21.37.8,0,.67-.35C251.15,79.33,245.72,68.29,240.15,57.93Z" transform="translate(197.97 1.82)"/><path class="cls-14" d="M439,103c-15.49-6.82-23.08-9.29-35.89-9.43-14.53-.16-29,0-43.55,1-27,1.92-54,9.3-74.41,27.79-.4.37-.11,1.22.49.93,47.81-22.52,110.64-27.74,162-15.35C448.69,108.19,445.32,105.77,439,103Z" transform="translate(197.97 1.82)"/><path class="cls-5" d="M267.36,957c-5.44,4.21-10.49,8.9-16.11,12.9-6.22,4.43-14.09,5.42-21.46,6.24-11.93,1.33-21.84.31-31.35,8.72-.05,0,0,.14.07.09a35.87,35.87,0,0,1,19.63-5.37,78.26,78.26,0,0,0,17.93-1.69c13.19-3,21.92-11.59,31.62-20.53C267.89,957.14,267.57,956.8,267.36,957Z" transform="translate(197.97 1.82)"/><path class="cls-5" d="M256.44,950.77c-18.27,8.07-37.36,13.93-57.33,15.41-12.79.94-29.15-1.27-37.24,11.19a.11.11,0,1,0,.16.14c11.62-12,31.3-7.23,46.27-9.74a165.17,165.17,0,0,0,48.33-16.62C256.85,951,256.66,950.68,256.44,950.77Z" transform="translate(197.97 1.82)"/><path class="cls-5" d="M244.8,948.48c-19.21,5.54-41.47,12.76-61.05,5.6-7-2.58-13.81-6.33-21.6-4.59-6.62,1.5-10.37,5.73-14.13,11.13a.41.41,0,0,0,.63.51c6.29-7.34,12.32-10.52,22.26-8.83,8.44,1.43,15.92,5.5,24.59,6.44,8.34.91,17.12-1,25.24-2.72A152.52,152.52,0,0,0,245,949.13.34.34,0,0,0,244.8,948.48Z" transform="translate(197.97 1.82)"/><path class="cls-5" d="M239.59,938.12c-16.93,3.71-33.32,1.91-50.06-1.88-12.75-2.88-25.66-6.31-36.8,2.79a.41.41,0,0,0,.48.67c14.6-7.64,29.74-2,45.06.43,14.13,2.19,27.73,3,41.43-1.68A.17.17,0,0,0,239.59,938.12Z" transform="translate(197.97 1.82)"/><path class="cls-2" d="M697.7,772.7a37.36,37.36,0,0,0,6.37-17.36c.71-6.69.07-15.14-4.47-20.47-3.46-4-7.78-3.07-11.45-.66.48-2.24.88-4.51,1.15-6.73.93-7.63-1.82-17.85-10.37-20-8.77-2.19-15.34,3.5-20.27,10.06a.12.12,0,0,0-.22-.06l-.07.12a46.31,46.31,0,0,0-.54-8.46c-1.46-8.92-8.54-15.11-17.57-14.56-9.24.56-17.2,8.33-21.83,15.68-11.22,17.83-11.55,41.6-16.17,61.63q-2.25,9.83-4.32,19.68a.91.91,0,0,0-.16-.24c-.28,2.12-.73,4.22-1.14,6.29-1.37,6.79-3.08,13.5-4.58,20.26-1.17,5.3-2.32,9.82-5.66,14.23-3.17,4.22-6.61,8.13-8.74,13-.48,1.07-2,.61-2.28-.29-2.2-6.53-2.91-13.24-3.68-20a80.77,80.77,0,0,1-6.33,8c-1.43,1.57-2.84,3.34-4.4,5-.65,11-2,22.16-1.85,33.16-4.06,7.64-7.44,15.81-7.47,24,0,10.6,5.74,21,16.37,23.87,9.6,2.56,20.11-3.54,27.23-9.32,10.82-8.77,15.16-21.1,19.65-33.86,4.84-13.76,13.59-25,23.78-35.21,7.26-7.28,15.2-15,19.35-24.57a22.3,22.3,0,0,1,7.21-3.9c4.35-1.25,9.15-1.26,13.61-2,6.86-1.09,14.63-3.21,19.59-8.41C705.67,793.9,708.8,777.2,697.7,772.7Z" transform="translate(197.97 1.82)"/><path class="cls-3" d="M704.45,780.64c-.41,5.34-1.94,10.39-6,14.1-6.46,5.92-17.41,13.71-26.8,9.86-7.36-3,8.85-12.49,10.44-13.56,3.08-2,6.6-4.19,8.46-7.53a55.62,55.62,0,0,1,3.31-6,10.25,10.25,0,0,1,5.13-4.15,9.44,9.44,0,0,0-1.31-.66,35.33,35.33,0,0,0,3.63-6.64c-.06-.53-.1-1-.15-1.59a1,1,0,0,1,1.16-1.17,39.22,39.22,0,0,0,1.73-8c.14-1.32.2-2.72.22-4.13a42.07,42.07,0,0,1-7.21,17.64A25.06,25.06,0,0,1,681,778.77c-8.77,1.41-10.26,10.71-18.22,12.9a1.25,1.25,0,0,1-1.57-1.19c.6-7.61,5.75-12.8,11.15-17.69,5.9-5.33,10.21-9.95,12.26-17.74,1.78-6.71,3.72-18.2,10-22.87a10.51,10.51,0,0,0-6.54,2c.48-2.24.88-4.51,1.15-6.73.61-5.07-.4-11.27-3.64-15.49,1.23,11.51-1.8,24.94-7.23,34-4.44,7.47-11.08,10.8-17.29,16.43-4.81,4.36-6.49,12.35-12.58,15.15a1.26,1.26,0,0,1-1.82-1.4c1.86-9.89,7.39-17.87,12.08-26.58a46.67,46.67,0,0,0,5.88-23.45c0-6.69.71-13.72,4.44-17.86-4.13,1.84-7.59,5.37-10.48,9.21a.12.12,0,0,0-.22-.06l-.07.12a46.31,46.31,0,0,0-.54-8.46,19.28,19.28,0,0,0-1.89-5.71,74.58,74.58,0,0,1-.69,9c-1.34,10.12-4,18.86-9.53,27.51-5.37,8.34-10.49,16.11-14.34,25.24-1.62,3.83-4.17,11.86-9.45,11.71-4.92-.15-3.1-10.08-2.67-12.64,2-11.51,5.12-22.71,4.3-34.54-.65-9.4-2.67-18.85,2.5-27.47a24.33,24.33,0,0,1,1.59-2.36,41.59,41.59,0,0,0-9.22,10.41c-11.22,17.83-11.55,41.6-16.17,61.63q-2.25,9.83-4.32,19.68a.91.91,0,0,0-.16-.24c-.28,2.12-.73,4.22-1.14,6.29-1.37,6.79-3.08,13.5-4.58,20.26-1.17,5.3-2.32,9.82-5.66,14.23-3.17,4.22-6.61,8.13-8.74,13-.48,1.07-2,.61-2.28-.29-2.2-6.53-2.91-13.24-3.68-20a80.77,80.77,0,0,1-6.33,8c-1.43,1.57-2.84,3.34-4.4,5-.65,11-2,22.16-1.85,33.16-4.06,7.64-7.44,15.81-7.47,24,0,10.6,5.74,21,16.37,23.87,9.6,2.56,20.11-3.54,27.23-9.32,10.82-8.77,15.16-21.1,19.65-33.86,4.84-13.76,13.59-25,23.78-35.21,7.26-7.28,15.2-15,19.35-24.57a22.3,22.3,0,0,1,7.21-3.9c4.35-1.25,9.15-1.26,13.61-2,6.86-1.09,14.63-3.21,19.59-8.41C703.22,796.47,706.2,787.47,704.45,780.64Zm-48.64,38.14c-3.1,6.26-9.44,4.32-14.09.81-3.74-2.82-6.33-6.81-10.5-9.16-3.91-2.18-7.65-3-11.84-4.21s-9.27-3.36-8.23-8.65c2.25-11.58,19.33-11.29,28.1-9,6.52,1.76,11.71,6.9,14.28,13.08a1.14,1.14,0,0,1,1.47.83C656.27,807.33,658.15,814,655.81,818.78Z" transform="translate(197.97 1.82)"/><path class="cls-3" d="M638.48,840.14c-7.89,5.24-17.39,9.15-24.48,15.48-8.48,7.58-7.3,15.81-7.07,26.18.15,7.28-1.2,14.33-6.6,19.64-7,6.86-14.37,11-24.29,8.74-5.93-1.33-12.25-3.74-13.87-10.32-3.81-15.44,1.6-36,9.47-49.33a1.27,1.27,0,0,1,2-.27,9.37,9.37,0,0,1,3.34,6.9c5.06-7.1,8.65-15.24,11.57-23.51.35-1,3.64-14.14,4-15.16-.45.75-5.56,12.87-6.13,13.62-3.17,4.22-6.61,8.13-8.74,13-.48,1.07-2,.61-2.28-.29-2.2-6.53-2.91-13.24-3.68-20a80.77,80.77,0,0,1-6.33,8c-1.43,1.57-2.84,3.34-4.4,5-.65,11-2,22.16-1.85,33.16-4.06,7.64-7.44,15.81-7.47,24,0,10.6,5.74,21,16.37,23.87,9.6,2.56,20.11-3.54,27.23-9.32,10.82-8.77,15.16-21.1,19.65-33.86,4.84-13.76,13.59-25,23.78-35.21l1.26-1.25C639.46,839.44,639,839.81,638.48,840.14Z" transform="translate(197.97 1.82)"/><path class="cls-6" d="M568.59,915.89c-8.45-3.66-11.84-10.19-12.45-17.88a25.77,25.77,0,0,1-.14-6.55,44.36,44.36,0,0,1,1-5.49c1.71-8.91,5.3-18.13,8.14-25.67-1.08,1.86-2.2,3.75-3.32,5.7.82-5.58,1.6-11.15,2.2-16.76.56-5.3.54-10.62.87-15.93-1.27,1.44-2.57,3-3.95,4.45-.65,11-2,22.16-1.85,33.16-4.06,7.64-7.44,15.81-7.47,24,0,10.6,5.74,21,16.37,23.87,6.73,1.8,13.89-.67,20-4.28C581.86,917.24,574.79,918.58,568.59,915.89Z" transform="translate(197.97 1.82)"/><path class="cls-6" d="M697.7,772.7a37.36,37.36,0,0,0,6.37-17.36c.71-6.69.07-15.14-4.47-20.47-3.46-4-7.78-3.07-11.45-.66.48-2.24.88-4.51,1.15-6.73.93-7.63-1.82-17.85-10.37-20-8.77-2.19-15.34,3.5-20.27,10.06a.12.12,0,0,0-.22-.06l-.07.12a46.31,46.31,0,0,0-.54-8.46c-1.46-8.92-8.54-15.11-17.57-14.56-9.24.56-17.2,8.33-21.83,15.68-11.22,17.83-11.55,41.6-16.17,61.63q-2.25,9.83-4.32,19.68a.91.91,0,0,0-.16-.24c-.26,2-.68,4-1.09,6,0,0,0,0,0,0q-2.28,10.9-4.43,21.89c-2.91,14.66-9.69,27.66-16.86,40.61-.1.18.18.34.29.19a154.75,154.75,0,0,0,16.4-30.29c4.66-11.72,5.79-24.64,8.68-36.86,3.05-12.92,6.5-25.69,8.88-38.77,1.58-8.67,3-17.34,5.33-25.83,2.58-9.23,6.76-18.49,14.33-24.66,4.19-3.41,9.84-5.74,15.25-4.87,6.79,1.09,9,8.64,9.76,14.33,1.9,13.51-5.62,27.57-12.77,38.46-6,9.16-10.59,17.6-11.71,28.68,0,.21.3.35.38.12a82.35,82.35,0,0,1,9-18.3c3.38-5,6.92-10,10-15.19A63.11,63.11,0,0,0,658,722.38c6.32-6.73,16.36-17.68,24.77-7.35,6.33,7.75.92,21.86-2.31,29.79-3.9,9.63-12.2,15.33-19.57,22.13-5.59,5.15-12.11,11.45-13.07,19.33-8.65-6.52-19.74-7.87-28.63-1.21,9.15-3.17,19.56-2.6,27.43,3.8,8.21,6.69,12.1,16,8.43,26.37-2.8,7.9-7.57,14.73-12.63,21.34,6.11-6.19,12.15-12.83,15.59-20.79a22.3,22.3,0,0,1,7.21-3.9c4.35-1.25,9.15-1.26,13.61-2,6.86-1.09,14.63-3.21,19.59-8.41C705.67,793.9,708.8,777.2,697.7,772.7Zm-47.27,15.71c2.83-6.28,5.87-11.43,10.81-16.34,4.53-4.49,9.67-8.33,14.24-12.78,5.92-5.76,9.59-13.4,11.77-21.41,2.77-1.83,6.09-3.35,9-1.2,2.55,1.88,3.34,6.15,3.84,9a33.76,33.76,0,0,1-4.56,23.52,28.57,28.57,0,0,1-11.62,10.2c-3.57,1.76-7.57,2.53-11.06,4.49a35.29,35.29,0,0,0-14.22,15.21A31.42,31.42,0,0,0,650.43,788.41Zm33.93,16.7c-7.39,2.18-17.38,1.33-24.47,5a18.36,18.36,0,0,0-.28-8c3.93-4.72,6.6-9.73,11.87-13.48s12-4.63,17.47-7.78a26.58,26.58,0,0,0,7.44-6.48c5.45,4,6.27,10.87,4.09,17.4C698,799.23,691.49,803,684.36,805.11Z" transform="translate(197.97 1.82)"/><path class="cls-5" d="M618.51,723.68s0,.09,0,.09S618.58,723.68,618.51,723.68Z" transform="translate(197.97 1.82)"/><path class="cls-5" d="M636,701.65c-8.52,1.69-13.88,9.68-16.24,17.45-.16.52.59.63.82.26,3.42-5.48,6.87-10.47,13-13.13s14.27-1.55,17.29,4.93c.33.7,1.5.55,1.4-.29C651.24,702.26,643.59,700.12,636,701.65Z" transform="translate(197.97 1.82)"/><path class="cls-5" d="M675.77,712.6c-6.35-1.33-10,5.09-14.17,8.69a.45.45,0,0,0,.51.73c3.41-2.19,6.31-5.56,10.42-6.42,5.11-1.05,8.33,5.74,10.22,9.34a.7.7,0,0,0,1.27-.45C683.18,720,680.86,713.67,675.77,712.6Z" transform="translate(197.97 1.82)"/><path class="cls-5" d="M698.69,737.81c-2.86-3.7-6.54-1.32-7.55,2.34-.15.52.61.68.84.26,3.32-5.81,6.25.92,6.77,4.46.48,3.25,0,6.57.36,9.83a.31.31,0,0,0,.61,0C700.53,749.47,702.24,742.41,698.69,737.81Z" transform="translate(197.97 1.82)"/><path class="cls-5" d="M696.08,778.92c-.57.08-.69,1-.06,1,5,.6,3.1,8,2.59,11.37a.4.4,0,0,0,.75.25C701.44,788.09,702.8,777.77,696.08,778.92Z" transform="translate(197.97 1.82)"/><path class="cls-5" d="M615.07,792.23a.44.44,0,0,0,.29.83c15.45-4.3,34.37,1.5,38.5,18.36.17.71,1.18.39,1.18-.26C655,790.45,630.89,784.05,615.07,792.23Z" transform="translate(197.97 1.82)"/></g></g></svg>